<?xml version="1.0" encoding="UTF-8"?><svg xmlns="http://www.w3.org/2000/svg" viewBox="0 0 199.81 127.38"><defs><style>.cls-1{fill:#42403d;}.cls-1,.cls-2{stroke-width:0px;}.cls-2{fill:#f5bb36;}</style></defs><g id="Warstwa_2"><rect class="cls-2" x="0" y="0" width="199.81" height="127.38" rx="63.69" ry="63.69"/></g><g id="Warstwa_3"><path class="cls-1" d="M73.86,31.56c-.46,0-.86-.02-1.21-.07-.35-.05-.65-.11-.9-.19v-2.99c.25.06.52.12.79.17.28.05.57.07.89.07.41,0,.79-.08,1.13-.24.34-.16.6-.45.79-.89.19-.43.28-1.07.28-1.91v-15.85h3.58v15.83c0,1.45-.23,2.63-.68,3.52s-1.08,1.54-1.88,1.94c-.81.4-1.74.6-2.8.6Z"/><path class="cls-1" d="M88.29,13.41c1.79,0,3.2.51,4.24,1.53,1.04,1.02,1.56,2.47,1.56,4.35v1.71h-8.34c.03,1,.33,1.78.89,2.35.56.57,1.34.85,2.33.85.82,0,1.58-.08,2.26-.25.69-.17,1.39-.42,2.12-.77v2.72c-.65.32-1.32.55-2.01.7-.7.15-1.54.23-2.54.23-1.3,0-2.44-.24-3.44-.72-1-.48-1.78-1.21-2.35-2.18s-.85-2.21-.85-3.71.26-2.76.77-3.77c.51-1.01,1.23-1.77,2.14-2.27s1.98-.76,3.2-.76ZM88.32,15.92c-.7,0-1.26.22-1.71.66s-.7,1.13-.78,2.06h4.95c-.02-.77-.23-1.42-.63-1.94s-1.02-.78-1.84-.78Z"/><path class="cls-1" d="M102.18,24c.39,0,.77-.04,1.14-.11s.73-.17,1.09-.3v2.63c-.38.17-.85.32-1.41.43-.56.11-1.17.17-1.84.17-.77,0-1.47-.13-2.07-.38-.61-.25-1.09-.69-1.45-1.3s-.53-1.49-.53-2.61v-6.23h-1.68v-1.49l1.94-1.18,1.02-2.73h2.25v2.75h3.63v2.65h-3.63v6.23c0,.49.14.86.43,1.1.28.25.66.37,1.11.37Z"/><path class="cls-1" d="M115.78,26.58h-10.21v-2.08l6-8.15h-5.64v-2.7h9.65v2.3l-5.83,7.94h6.04v2.7Z"/><path class="cls-1" d="M123.55,24c.39,0,.77-.04,1.14-.11s.73-.17,1.09-.3v2.63c-.38.17-.85.32-1.41.43-.56.11-1.17.17-1.84.17-.77,0-1.47-.13-2.07-.38-.61-.25-1.09-.69-1.45-1.3s-.53-1.49-.53-2.61v-6.23h-1.68v-1.49l1.94-1.18,1.02-2.73h2.25v2.75h3.63v2.65h-3.63v6.23c0,.49.14.86.43,1.1.28.25.66.37,1.11.37Z"/><path class="cls-1" d="M33.84,37.01c.52,0,.97.12,1.35.37.38.25.57.7.57,1.36s-.19,1.1-.57,1.35c-.38.25-.83.38-1.35.38s-.99-.13-1.36-.38c-.37-.25-.56-.7-.56-1.35s.19-1.12.56-1.36c.37-.25.83-.37,1.36-.37ZM35.59,42.08v12.94h-3.53v-12.94h3.53Z"/><path class="cls-1" d="M46.4,41.84c1.39,0,2.5.38,3.34,1.13s1.26,1.96,1.26,3.61v8.44h-3.53v-7.56c0-.93-.17-1.63-.5-2.1-.33-.47-.86-.7-1.59-.7-1.07,0-1.81.37-2.2,1.1-.4.73-.59,1.79-.59,3.16v6.09h-3.53v-12.94h2.7l.47,1.66h.19c.41-.66.98-1.14,1.69-1.45.72-.3,1.48-.45,2.29-.45Z"/><path class="cls-1" d="M61.54,44.73h-3.06v10.28h-3.53v-10.28h-1.94v-1.71l1.94-.95v-.95c0-1.11.19-1.96.56-2.57.37-.61.9-1.04,1.59-1.29.69-.25,1.5-.38,2.43-.38.68,0,1.3.05,1.87.17.57.11,1.03.24,1.37.38l-.9,2.58c-.27-.08-.57-.15-.89-.23-.32-.07-.68-.11-1.08-.11-.49,0-.85.15-1.08.45s-.34.68-.34,1.14v.81h3.06v2.65Z"/><path class="cls-1" d="M75.07,48.52c0,2.15-.56,3.81-1.69,4.98s-2.67,1.75-4.61,1.75c-1.2,0-2.27-.26-3.21-.78-.94-.52-1.68-1.28-2.22-2.29-.54-1-.81-2.22-.81-3.66,0-2.15.56-3.8,1.68-4.95,1.12-1.15,2.66-1.73,4.62-1.73,1.22,0,2.29.26,3.22.78.93.52,1.67,1.28,2.2,2.27.54,1,.81,2.2.81,3.63ZM66.14,48.52c0,1.28.21,2.25.63,2.9.42.66,1.1.98,2.05.98s1.61-.33,2.03-.98.63-1.62.63-2.9-.21-2.24-.63-2.88-1.1-.96-2.05-.96-1.61.32-2.03.96c-.42.64-.63,1.6-.63,2.88Z"/><path class="cls-1" d="M84.98,41.84c.17,0,.38,0,.62.02.24.02.43.04.57.07l-.26,3.32c-.13-.03-.29-.06-.5-.08-.21-.02-.39-.04-.54-.04-.6,0-1.18.11-1.73.32-.55.21-1,.56-1.34,1.03-.34.47-.51,1.12-.51,1.94v6.59h-3.53v-12.94h2.68l.52,2.18h.17c.38-.66.9-1.23,1.56-1.71s1.43-.71,2.3-.71Z"/><path class="cls-1" d="M103.46,41.84c1.47,0,2.58.38,3.33,1.13s1.13,1.96,1.13,3.61v8.44h-3.53v-7.56c0-1.86-.65-2.8-1.94-2.8-.93,0-1.6.33-1.99,1-.4.66-.59,1.62-.59,2.87v6.49h-3.53v-7.56c0-1.86-.65-2.8-1.94-2.8-.98,0-1.66.37-2.03,1.1s-.56,1.79-.56,3.16v6.09h-3.53v-12.94h2.7l.47,1.66h.19c.39-.66.94-1.14,1.62-1.45.69-.3,1.4-.45,2.15-.45.95,0,1.75.15,2.41.46.66.31,1.16.79,1.53,1.43h.31c.39-.66.94-1.14,1.65-1.45.7-.3,1.43-.45,2.17-.45Z"/><path class="cls-1" d="M113.08,37.01c.52,0,.97.12,1.35.37.38.25.57.7.57,1.36s-.19,1.1-.57,1.35c-.38.25-.83.38-1.35.38s-.99-.13-1.36-.38c-.37-.25-.56-.7-.56-1.35s.19-1.12.56-1.36c.37-.25.83-.37,1.36-.37ZM114.83,42.08v12.94h-3.53v-12.94h3.53Z"/><path class="cls-1" d="M123.63,41.84c1.79,0,3.2.51,4.24,1.53,1.04,1.02,1.56,2.47,1.56,4.35v1.71h-8.34c.03,1,.33,1.78.89,2.35.56.57,1.34.85,2.33.85.82,0,1.58-.08,2.26-.25.69-.17,1.39-.42,2.12-.77v2.72c-.65.32-1.32.55-2.01.7-.7.15-1.54.23-2.54.23-1.3,0-2.44-.24-3.44-.72-1-.48-1.78-1.21-2.35-2.18s-.85-2.21-.85-3.71.26-2.76.77-3.77c.51-1.01,1.23-1.77,2.14-2.27s1.98-.76,3.2-.76ZM123.65,44.35c-.7,0-1.26.22-1.71.66s-.7,1.13-.78,2.06h4.95c-.02-.77-.23-1.42-.63-1.94s-1.02-.78-1.84-.78Z"/><path class="cls-1" d="M139.29,41.84c.17,0,.38,0,.62.02.24.02.43.04.57.07l-.26,3.32c-.13-.03-.29-.06-.5-.08-.21-.02-.39-.04-.55-.04-.6,0-1.18.11-1.73.32-.55.21-1,.56-1.34,1.03-.34.47-.51,1.12-.51,1.94v6.59h-3.53v-12.94h2.68l.52,2.18h.17c.38-.66.9-1.23,1.56-1.71.66-.47,1.43-.71,2.3-.71Z"/><path class="cls-1" d="M147.44,41.84c1.78,0,3.2.51,4.24,1.53,1.04,1.02,1.56,2.47,1.56,4.35v1.71h-8.34c.03,1,.33,1.78.89,2.35.56.57,1.34.85,2.33.85.82,0,1.58-.08,2.26-.25.69-.17,1.39-.42,2.12-.77v2.72c-.65.32-1.32.55-2.01.7-.7.15-1.54.23-2.54.23-1.29,0-2.44-.24-3.44-.72-1-.48-1.78-1.21-2.35-2.18-.57-.97-.85-2.21-.85-3.71s.26-2.76.77-3.77c.51-1.01,1.23-1.77,2.14-2.27.92-.51,1.98-.76,3.2-.76ZM147.46,44.35c-.7,0-1.26.22-1.71.66-.44.44-.7,1.13-.78,2.06h4.95c-.02-.77-.23-1.42-.63-1.94-.4-.52-1.01-.78-1.84-.78Z"/><path class="cls-1" d="M163.22,41.84c1.39,0,2.5.38,3.34,1.13.84.75,1.26,1.96,1.26,3.61v8.44h-3.53v-7.56c0-.93-.17-1.63-.5-2.1-.33-.47-.86-.7-1.59-.7-1.08,0-1.81.37-2.2,1.1-.4.73-.59,1.79-.59,3.16v6.09h-3.53v-12.94h2.7l.47,1.66h.19c.41-.66.97-1.14,1.69-1.45.72-.3,1.48-.45,2.29-.45Z"/><path class="cls-1" d="M52.65,70.52v12.94h-2.7l-.47-1.66h-.19c-.41.66-.98,1.15-1.69,1.45-.72.3-1.48.45-2.29.45-1.39,0-2.5-.38-3.34-1.13-.84-.75-1.26-1.96-1.26-3.61v-8.44h3.53v7.56c0,.93.17,1.63.5,2.1.33.47.86.7,1.59.7,1.07,0,1.81-.37,2.2-1.1.4-.74.59-1.79.59-3.16v-6.09h3.53Z"/><path class="cls-1" d="M63.46,70.28c1.39,0,2.5.38,3.34,1.13s1.26,1.96,1.26,3.61v8.44h-3.53v-7.56c0-.93-.17-1.63-.5-2.1-.33-.47-.86-.7-1.59-.7-1.07,0-1.81.37-2.2,1.1-.4.73-.59,1.79-.59,3.16v6.09h-3.53v-12.94h2.7l.47,1.66h.19c.41-.66.98-1.14,1.69-1.45.72-.3,1.48-.45,2.29-.45Z"/><path class="cls-1" d="M75.54,83.69c-1.44,0-2.61-.57-3.52-1.69-.91-1.13-1.36-2.79-1.36-4.99s.46-3.89,1.37-5.02c.92-1.14,2.12-1.71,3.6-1.71.93,0,1.7.18,2.3.54.6.36,1.07.81,1.42,1.35h.12c-.05-.25-.1-.62-.17-1.1-.06-.48-.09-.98-.09-1.48v-4.15h3.53v18.01h-2.7l-.69-1.68h-.14c-.35.54-.81.99-1.4,1.36-.58.37-1.34.56-2.27.56ZM76.78,80.87c.96,0,1.64-.29,2.04-.87.39-.58.61-1.44.64-2.59v-.38c0-1.25-.19-2.21-.58-2.88-.39-.67-1.1-1.01-2.14-1.01-.77,0-1.38.34-1.82,1.01-.44.67-.66,1.64-.66,2.9s.22,2.22.66,2.86,1.07.96,1.87.96Z"/><path class="cls-1" d="M99.6,69.28c-1.37,0-2.43.51-3.15,1.54-.73,1.03-1.09,2.43-1.09,4.22s.34,3.2,1.01,4.18,1.75,1.48,3.23,1.48c.68,0,1.37-.08,2.06-.24.7-.16,1.45-.38,2.25-.66v3.01c-.74.3-1.48.52-2.2.66-.73.14-1.54.21-2.44.21-1.75,0-3.19-.36-4.31-1.08-1.12-.72-1.95-1.73-2.49-3.03-.54-1.3-.81-2.82-.81-4.56s.31-3.21.92-4.53c.62-1.31,1.51-2.34,2.69-3.08,1.18-.74,2.62-1.11,4.32-1.11.84,0,1.68.11,2.52.32.84.21,1.65.5,2.43.87l-1.16,2.91c-.63-.3-1.27-.56-1.91-.78-.64-.22-1.27-.33-1.88-.33Z"/><path class="cls-1" d="M110.52,65.44v3.67c0,.65-.02,1.26-.06,1.84-.04.58-.08.98-.11,1.22h.19c.41-.66.94-1.14,1.59-1.45.65-.3,1.37-.45,2.16-.45,1.39,0,2.51.38,3.37,1.13s1.28,1.96,1.28,3.61v8.44h-3.53v-7.56c0-1.86-.7-2.8-2.08-2.8-1.06,0-1.79.37-2.19,1.1s-.6,1.79-.6,3.16v6.09h-3.53v-18.01h3.53Z"/><path class="cls-1" d="M127.65,70.28c1.79,0,3.2.51,4.24,1.53,1.04,1.02,1.56,2.47,1.56,4.35v1.71h-8.34c.03,1,.33,1.78.89,2.35.56.57,1.34.85,2.33.85.82,0,1.58-.08,2.26-.25.69-.17,1.39-.42,2.12-.77v2.72c-.65.32-1.32.55-2.01.7-.7.15-1.54.23-2.54.23-1.3,0-2.44-.24-3.44-.72-1-.48-1.78-1.21-2.35-2.18s-.85-2.21-.85-3.71.26-2.76.77-3.77c.51-1.01,1.23-1.77,2.14-2.27s1.98-.76,3.2-.76ZM127.68,72.79c-.7,0-1.26.22-1.71.66s-.7,1.13-.78,2.06h4.95c-.02-.77-.23-1.42-.63-1.94s-1.02-.78-1.84-.78Z"/><path class="cls-1" d="M141.35,83.69c-1.93,0-3.42-.53-4.47-1.59s-1.58-2.74-1.58-5.05c0-1.58.27-2.87.81-3.86.54-1,1.28-1.73,2.24-2.2s2.06-.71,3.31-.71c.88,0,1.66.09,2.31.26s1.23.38,1.72.62l-1.04,2.73c-.55-.22-1.07-.4-1.55-.55-.48-.14-.96-.21-1.43-.21-1.83,0-2.75,1.3-2.75,3.91,0,1.3.24,2.25.72,2.87.48.62,1.16.92,2.03.92.74,0,1.4-.1,1.97-.3.57-.2,1.12-.47,1.66-.82v3.01c-.54.35-1.1.6-1.69.75-.59.15-1.34.23-2.24.23Z"/><path class="cls-1" d="M151.56,65.44v8.06c0,.49-.02.98-.06,1.46-.04.48-.08.97-.13,1.46h.05c.24-.33.48-.66.73-1s.52-.66.81-.97l3.63-3.93h3.98l-5.14,5.62,5.45,7.32h-4.08l-3.72-5.24-1.52,1.21v4.03h-3.53v-18.01h3.53Z"/><path class="cls-1" d="M70.08,98.72c1.47,0,2.58.38,3.33,1.13s1.13,1.96,1.13,3.61v8.44h-3.53v-7.56c0-1.86-.65-2.8-1.94-2.8-.93,0-1.6.33-1.99,1-.4.66-.59,1.62-.59,2.87v6.49h-3.53v-7.56c0-1.86-.65-2.8-1.94-2.8-.98,0-1.66.37-2.03,1.1s-.56,1.79-.56,3.16v6.09h-3.53v-12.94h2.7l.47,1.66h.19c.39-.66.94-1.14,1.62-1.45.69-.3,1.4-.45,2.15-.45.95,0,1.75.15,2.41.46.66.31,1.16.79,1.53,1.43h.31c.39-.66.94-1.14,1.65-1.45.7-.3,1.43-.45,2.17-.45Z"/><path class="cls-1" d="M83.23,98.69c1.74,0,3.07.38,3.99,1.12.92.75,1.39,1.9,1.39,3.45v8.63h-2.46l-.69-1.75h-.09c-.55.7-1.14,1.2-1.75,1.52-.62.32-1.46.47-2.54.47-1.15,0-2.11-.33-2.87-1-.76-.66-1.14-1.7-1.14-3.1s.48-2.39,1.45-3.03c.96-.65,2.41-1.01,4.34-1.09l2.25-.07v-.57c0-.68-.18-1.18-.53-1.49-.36-.32-.85-.47-1.48-.47s-1.25.09-1.85.27c-.6.18-1.2.41-1.8.68l-1.16-2.39c.68-.35,1.45-.63,2.3-.84.85-.21,1.74-.32,2.65-.32ZM85.11,105.9l-1.37.05c-1.14.03-1.93.24-2.37.62-.44.38-.66.88-.66,1.49,0,.54.16.92.47,1.15s.73.34,1.23.34c.76,0,1.4-.23,1.92-.68s.78-1.09.78-1.91v-1.07Z"/><path class="cls-1" d="M97.26,112.13c-1.93,0-3.42-.53-4.47-1.59s-1.58-2.74-1.58-5.05c0-1.58.27-2.87.81-3.86s1.28-1.73,2.24-2.2c.96-.47,2.06-.71,3.31-.71.88,0,1.65.09,2.31.26s1.23.38,1.72.62l-1.04,2.73c-.55-.22-1.07-.4-1.55-.55-.48-.14-.96-.21-1.43-.21-1.83,0-2.75,1.3-2.75,3.91,0,1.3.24,2.25.72,2.87s1.16.92,2.03.92c.74,0,1.4-.1,1.97-.3.57-.2,1.12-.47,1.66-.82v3.01c-.54.35-1.1.6-1.69.75-.59.15-1.34.23-2.24.23Z"/><path class="cls-1" d="M107.48,93.88v3.67c0,.65-.02,1.26-.06,1.84-.04.58-.08.98-.11,1.22h.19c.41-.66.94-1.14,1.59-1.45.65-.3,1.37-.45,2.16-.45,1.39,0,2.51.38,3.37,1.13s1.28,1.96,1.28,3.61v8.44h-3.53v-7.56c0-1.86-.7-2.8-2.08-2.8-1.06,0-1.79.37-2.19,1.1s-.6,1.79-.6,3.16v6.09h-3.53v-18.01h3.53Z"/><path class="cls-1" d="M124.61,98.72c1.79,0,3.2.51,4.24,1.53,1.04,1.02,1.56,2.47,1.56,4.35v1.71h-8.34c.03,1,.33,1.78.89,2.35.56.57,1.34.85,2.33.85.82,0,1.58-.08,2.26-.25.69-.17,1.39-.42,2.12-.77v2.72c-.65.32-1.32.55-2.01.7-.7.15-1.54.23-2.54.23-1.3,0-2.44-.24-3.44-.72-1-.48-1.78-1.21-2.35-2.18s-.85-2.21-.85-3.71.26-2.76.77-3.77c.51-1.01,1.23-1.77,2.14-2.27s1.98-.76,3.2-.76ZM124.63,101.23c-.7,0-1.26.22-1.71.66s-.7,1.13-.78,2.06h4.95c-.02-.77-.23-1.42-.63-1.94s-1.02-.78-1.84-.78Z"/><path class="cls-1" d="M140.39,98.72c1.39,0,2.5.38,3.34,1.13.84.75,1.26,1.96,1.26,3.61v8.44h-3.53v-7.56c0-.93-.17-1.63-.5-2.1s-.86-.7-1.59-.7c-1.07,0-1.81.37-2.2,1.1-.4.73-.59,1.79-.59,3.16v6.09h-3.53v-12.94h2.7l.47,1.66h.19c.41-.66.98-1.14,1.69-1.45.72-.3,1.48-.45,2.29-.45Z"/></g></svg>