<?xml version="1.0" encoding="UTF-8"?><svg xmlns="http://www.w3.org/2000/svg" viewBox="0 0 259.99 28.8"><defs><style>.cls-1{fill:#42403d;}.cls-1,.cls-2{stroke-width:0px;}.cls-2{fill:#f5bb36;}</style></defs><g id="Warstwa_2"><rect class="cls-2" x="0" y="0" width="259.99" height="28.8" rx="14.4" ry="14.4"/></g><g id="Warstwa_3"><path class="cls-1" d="M26.4,19.98c-.22,0-.42-.01-.58-.03-.17-.02-.31-.05-.44-.09v-1.44c.12.03.25.06.38.08.13.02.28.03.43.03.2,0,.38-.04.54-.11.16-.08.29-.22.38-.43.09-.21.14-.52.14-.92v-7.66h1.73v7.65c0,.7-.11,1.27-.33,1.7s-.52.74-.91.94c-.39.19-.84.29-1.35.29Z"/><path class="cls-1" d="M33.48,11.21c.86,0,1.55.25,2.05.74.5.49.76,1.19.76,2.1v.82h-4.03c.02.48.16.86.43,1.13.27.27.65.41,1.13.41.4,0,.76-.04,1.09-.12s.67-.2,1.02-.37v1.32c-.31.15-.64.27-.97.34s-.74.11-1.23.11c-.63,0-1.18-.12-1.66-.35-.48-.23-.86-.58-1.13-1.05-.27-.47-.41-1.07-.41-1.79s.12-1.33.37-1.82c.25-.49.59-.86,1.04-1.1s.96-.37,1.55-.37ZM33.5,12.42c-.34,0-.61.11-.82.32-.21.21-.34.55-.38,1h2.39c0-.37-.11-.69-.3-.94s-.49-.38-.89-.38Z"/><path class="cls-1" d="M40.31,16.33c.19,0,.37-.02.55-.05.18-.03.35-.08.53-.14v1.27c-.18.08-.41.15-.68.21-.27.05-.57.08-.89.08-.37,0-.71-.06-1-.18s-.53-.33-.7-.63c-.17-.3-.26-.72-.26-1.26v-3.01h-.81v-.72l.94-.57.49-1.32h1.09v1.33h1.75v1.28h-1.75v3.01c0,.24.07.41.21.53.14.12.32.18.54.18Z"/><path class="cls-1" d="M47,17.58h-4.94v-1.01l2.9-3.94h-2.73v-1.31h4.66v1.11l-2.82,3.84h2.92v1.31Z"/><path class="cls-1" d="M50.87,16.33c.19,0,.37-.02.55-.05.18-.03.35-.08.53-.14v1.27c-.18.08-.41.15-.68.21-.27.05-.57.08-.89.08-.37,0-.71-.06-1-.18s-.53-.33-.7-.63c-.17-.3-.26-.72-.26-1.26v-3.01h-.81v-.72l.94-.57.49-1.32h1.09v1.33h1.75v1.28h-1.75v3.01c0,.24.07.41.21.53.14.12.32.18.54.18Z"/><path class="cls-1" d="M57.04,8.87c.25,0,.47.06.65.18.18.12.27.34.27.66s-.09.53-.27.65c-.18.12-.4.18-.65.18s-.48-.06-.66-.18c-.18-.12-.27-.34-.27-.65s.09-.54.27-.66c.18-.12.4-.18.66-.18ZM57.89,11.33v6.25h-1.71v-6.25h1.71Z"/><path class="cls-1" d="M63.23,11.21c.67,0,1.21.18,1.61.54.4.36.61.94.61,1.75v4.08h-1.71v-3.65c0-.45-.08-.79-.24-1.01-.16-.23-.42-.34-.77-.34-.52,0-.87.18-1.06.53-.19.35-.29.86-.29,1.53v2.94h-1.71v-6.25h1.31l.23.8h.09c.2-.32.47-.55.82-.7.35-.15.72-.22,1.1-.22Z"/><path class="cls-1" d="M70.66,12.61h-1.48v4.97h-1.71v-4.97h-.94v-.82l.94-.46v-.46c0-.53.09-.95.27-1.24.18-.29.44-.5.77-.62s.72-.18,1.17-.18c.33,0,.63.03.9.08.27.05.5.11.66.18l-.44,1.25c-.13-.04-.27-.07-.43-.11-.16-.03-.33-.05-.52-.05-.24,0-.41.07-.52.22s-.17.33-.17.55v.39h1.48v1.28Z"/><path class="cls-1" d="M77.31,14.44c0,1.04-.27,1.84-.82,2.4-.55.57-1.29.85-2.23.85-.58,0-1.1-.13-1.55-.38-.45-.25-.81-.62-1.07-1.11-.26-.48-.39-1.07-.39-1.77,0-1.04.27-1.84.81-2.39.54-.56,1.29-.84,2.23-.84.59,0,1.11.13,1.56.38s.81.62,1.06,1.1c.26.48.39,1.06.39,1.75ZM73,14.44c0,.62.1,1.09.3,1.4.2.32.53.47.99.47s.78-.16.98-.47c.2-.32.3-.79.3-1.4s-.1-1.08-.3-1.39-.53-.46-.99-.46-.78.15-.98.46-.3.77-.3,1.39Z"/><path class="cls-1" d="M82.21,11.21c.08,0,.18,0,.3.01.11,0,.21.02.27.03l-.13,1.6c-.06-.02-.14-.03-.24-.04-.1-.01-.19-.02-.26-.02-.29,0-.57.05-.84.15-.27.1-.48.27-.65.5s-.25.54-.25.94v3.18h-1.71v-6.25h1.29l.25,1.05h.08c.18-.32.44-.6.76-.82s.69-.34,1.11-.34Z"/><path class="cls-1" d="M91.26,11.21c.71,0,1.25.18,1.61.54.36.36.54.94.54,1.75v4.08h-1.71v-3.65c0-.9-.31-1.35-.94-1.35-.45,0-.77.16-.96.48-.19.32-.29.78-.29,1.39v3.14h-1.71v-3.65c0-.9-.31-1.35-.94-1.35-.47,0-.8.18-.98.53-.18.35-.27.86-.27,1.53v2.94h-1.71v-6.25h1.31l.23.8h.09c.19-.32.45-.55.78-.7.33-.15.68-.22,1.04-.22.46,0,.85.07,1.16.22s.56.38.74.69h.15c.19-.32.46-.55.8-.7.34-.15.69-.22,1.05-.22Z"/><path class="cls-1" d="M96.03,8.87c.25,0,.47.06.65.18.18.12.27.34.27.66s-.09.53-.27.65c-.18.12-.4.18-.65.18s-.48-.06-.66-.18c-.18-.12-.27-.34-.27-.65s.09-.54.27-.66c.18-.12.4-.18.66-.18ZM96.87,11.33v6.25h-1.71v-6.25h1.71Z"/><path class="cls-1" d="M101.24,11.21c.86,0,1.55.25,2.05.74.5.49.76,1.19.76,2.1v.82h-4.03c.02.48.16.86.43,1.13.27.27.65.41,1.13.41.4,0,.76-.04,1.09-.12s.67-.2,1.02-.37v1.32c-.31.15-.64.27-.97.34s-.74.11-1.23.11c-.63,0-1.18-.12-1.66-.35-.48-.23-.86-.58-1.13-1.05-.27-.47-.41-1.07-.41-1.79s.12-1.33.37-1.82c.25-.49.59-.86,1.04-1.1s.96-.37,1.55-.37ZM101.25,12.42c-.34,0-.61.11-.82.32-.21.21-.34.55-.38,1h2.39c0-.37-.11-.69-.3-.94s-.49-.38-.89-.38Z"/><path class="cls-1" d="M108.92,11.21c.08,0,.18,0,.3.01.11,0,.21.02.27.03l-.13,1.6c-.06-.02-.14-.03-.24-.04-.1-.01-.19-.02-.26-.02-.29,0-.57.05-.84.15-.27.1-.48.27-.65.5s-.25.54-.25.94v3.18h-1.71v-6.25h1.29l.25,1.05h.08c.18-.32.44-.6.76-.82s.69-.34,1.11-.34Z"/><path class="cls-1" d="M112.98,11.21c.86,0,1.55.25,2.05.74.5.49.76,1.19.76,2.1v.82h-4.03c.02.48.16.86.43,1.13.27.27.65.41,1.13.41.4,0,.76-.04,1.09-.12s.67-.2,1.02-.37v1.32c-.31.15-.64.27-.97.34s-.74.11-1.23.11c-.63,0-1.18-.12-1.66-.35-.48-.23-.86-.58-1.13-1.05-.27-.47-.41-1.07-.41-1.79s.12-1.33.37-1.82c.25-.49.59-.86,1.04-1.1s.96-.37,1.55-.37ZM112.99,12.42c-.34,0-.61.11-.82.32-.21.21-.34.55-.38,1h2.39c0-.37-.11-.69-.3-.94s-.49-.38-.89-.38Z"/><path class="cls-1" d="M120.72,11.21c.67,0,1.21.18,1.61.54.4.36.61.94.61,1.75v4.08h-1.71v-3.65c0-.45-.08-.79-.24-1.01-.16-.23-.42-.34-.77-.34-.52,0-.87.18-1.06.53-.19.35-.29.86-.29,1.53v2.94h-1.71v-6.25h1.31l.23.8h.09c.2-.32.47-.55.82-.7.35-.15.72-.22,1.1-.22Z"/><path class="cls-1" d="M133.41,11.33v6.25h-1.31l-.23-.8h-.09c-.2.32-.47.55-.82.7-.35.15-.72.22-1.11.22-.67,0-1.21-.18-1.61-.54-.4-.36-.61-.95-.61-1.75v-4.08h1.71v3.65c0,.45.08.79.24,1.01.16.22.42.34.77.34.52,0,.87-.18,1.06-.53s.29-.86.29-1.53v-2.94h1.71Z"/><path class="cls-1" d="M138.74,11.21c.67,0,1.21.18,1.62.54.4.36.61.94.61,1.75v4.08h-1.71v-3.65c0-.45-.08-.79-.24-1.01-.16-.23-.42-.34-.77-.34-.52,0-.87.18-1.07.53-.19.35-.29.86-.29,1.53v2.94h-1.71v-6.25h1.31l.23.8h.09c.2-.32.47-.55.82-.7.35-.15.72-.22,1.11-.22Z"/><path class="cls-1" d="M144.7,17.69c-.7,0-1.26-.27-1.7-.82s-.66-1.35-.66-2.41.22-1.88.66-2.43c.44-.55,1.02-.82,1.74-.82.45,0,.82.09,1.11.26s.52.39.69.65h.06c-.02-.12-.05-.3-.08-.53s-.05-.47-.05-.72v-2h1.71v8.7h-1.31l-.33-.81h-.07c-.17.26-.39.48-.68.66-.28.18-.65.27-1.1.27ZM145.29,16.33c.47,0,.79-.14.99-.42.19-.28.29-.7.31-1.25v-.18c0-.6-.09-1.07-.28-1.39-.19-.32-.53-.49-1.04-.49-.37,0-.67.16-.88.49-.21.32-.32.79-.32,1.4s.11,1.07.32,1.38.52.46.9.46Z"/><path class="cls-1" d="M156.55,10.73c-.66,0-1.17.25-1.52.74s-.53,1.18-.53,2.04.16,1.54.49,2.02c.32.48.85.72,1.56.72.33,0,.66-.04,1-.12s.7-.18,1.09-.32v1.45c-.36.15-.71.25-1.06.32-.35.07-.75.1-1.18.1-.85,0-1.54-.17-2.08-.52s-.94-.84-1.2-1.47c-.26-.63-.39-1.36-.39-2.2s.15-1.55.45-2.19c.3-.63.73-1.13,1.3-1.49.57-.36,1.26-.54,2.09-.54.4,0,.81.05,1.22.15.41.1.8.24,1.17.42l-.56,1.41c-.31-.15-.61-.27-.92-.38s-.61-.16-.91-.16Z"/><path class="cls-1" d="M161.95,8.87v1.77c0,.31,0,.61-.03.89-.02.28-.04.48-.05.59h.09c.2-.32.45-.55.77-.7.31-.15.66-.22,1.04-.22.67,0,1.21.18,1.63.54.41.36.62.94.62,1.75v4.08h-1.71v-3.65c0-.9-.34-1.35-1.01-1.35-.51,0-.87.18-1.06.53s-.29.86-.29,1.53v2.94h-1.71v-8.7h1.71Z"/><path class="cls-1" d="M170.34,11.21c.86,0,1.55.25,2.05.74.5.49.76,1.19.76,2.1v.82h-4.03c.01.48.16.86.43,1.13.27.27.65.41,1.13.41.4,0,.76-.04,1.09-.12s.67-.2,1.03-.37v1.32c-.31.15-.64.27-.97.34s-.74.11-1.23.11c-.63,0-1.18-.12-1.66-.35-.48-.23-.86-.58-1.13-1.05-.28-.47-.41-1.07-.41-1.79s.12-1.33.37-1.82c.25-.49.59-.86,1.04-1.1.44-.24.96-.37,1.55-.37ZM170.35,12.42c-.34,0-.61.11-.82.32-.21.21-.34.55-.38,1h2.39c0-.37-.11-.69-.3-.94s-.49-.38-.89-.38Z"/><path class="cls-1" d="M177.07,17.69c-.93,0-1.65-.26-2.16-.77-.51-.51-.76-1.33-.76-2.44,0-.76.13-1.39.39-1.87.26-.48.62-.84,1.08-1.06s.99-.34,1.6-.34c.43,0,.8.04,1.12.13.32.08.59.18.83.3l-.5,1.32c-.27-.11-.52-.19-.75-.26-.23-.07-.46-.1-.69-.1-.89,0-1.33.63-1.33,1.89,0,.63.12,1.09.35,1.39.23.3.56.45.98.45.36,0,.68-.05.95-.14s.54-.23.8-.4v1.45c-.26.17-.53.29-.82.36-.29.07-.65.11-1.08.11Z"/><path class="cls-1" d="M182.12,8.87v3.89c0,.24,0,.47-.03.7-.02.23-.04.47-.06.7h.02c.11-.16.23-.32.35-.48s.25-.32.39-.47l1.75-1.9h1.92l-2.48,2.71,2.63,3.54h-1.97l-1.8-2.53-.73.58v1.95h-1.71v-8.7h1.71Z"/><path class="cls-1" d="M197.84,11.21c.71,0,1.25.18,1.61.54.36.36.54.94.54,1.75v4.08h-1.71v-3.65c0-.9-.31-1.35-.94-1.35-.45,0-.77.16-.96.48-.19.32-.29.78-.29,1.39v3.14h-1.71v-3.65c0-.9-.31-1.35-.94-1.35-.47,0-.8.18-.98.53-.18.35-.27.86-.27,1.53v2.94h-1.71v-6.25h1.31l.23.8h.09c.19-.32.45-.55.78-.7s.68-.22,1.04-.22c.46,0,.84.07,1.16.22.32.15.56.38.74.69h.15c.19-.32.46-.55.8-.7s.69-.22,1.05-.22Z"/><path class="cls-1" d="M204.31,11.2c.84,0,1.48.18,1.93.54.45.36.67.92.67,1.67v4.17h-1.19l-.33-.85h-.05c-.27.34-.55.58-.85.73-.3.15-.71.23-1.23.23-.56,0-1.02-.16-1.39-.48-.37-.32-.55-.82-.55-1.5s.23-1.15.7-1.47,1.16-.49,2.1-.53l1.09-.03v-.27c0-.33-.09-.57-.26-.72s-.41-.23-.72-.23-.6.04-.89.13c-.29.09-.58.2-.87.33l-.56-1.16c.33-.17.7-.3,1.11-.41.41-.1.84-.15,1.28-.15ZM205.21,14.68l-.66.02c-.55.02-.93.11-1.15.3-.21.18-.32.42-.32.72,0,.26.08.45.23.56.15.11.35.17.6.17.37,0,.68-.11.93-.33s.38-.52.38-.92v-.52Z"/><path class="cls-1" d="M211.2,17.69c-.93,0-1.65-.26-2.16-.77-.51-.51-.76-1.33-.76-2.44,0-.76.13-1.39.39-1.87.26-.48.62-.84,1.08-1.06s.99-.34,1.6-.34c.43,0,.8.04,1.12.13.32.08.59.18.83.3l-.5,1.32c-.27-.11-.52-.19-.75-.26-.23-.07-.46-.1-.69-.1-.89,0-1.33.63-1.33,1.89,0,.63.12,1.09.35,1.39.23.3.56.45.98.45.36,0,.68-.05.95-.14s.54-.23.8-.4v1.45c-.26.17-.53.29-.82.36-.29.07-.65.11-1.08.11Z"/><path class="cls-1" d="M216.25,8.87v1.77c0,.31,0,.61-.03.89-.02.28-.04.48-.05.59h.09c.2-.32.45-.55.77-.7.31-.15.66-.22,1.04-.22.67,0,1.21.18,1.63.54.41.36.62.94.62,1.75v4.08h-1.71v-3.65c0-.9-.34-1.35-1.01-1.35-.51,0-.87.18-1.06.53s-.29.86-.29,1.53v2.94h-1.71v-8.7h1.71Z"/><path class="cls-1" d="M224.65,11.21c.86,0,1.55.25,2.05.74.5.49.76,1.19.76,2.1v.82h-4.03c.01.48.16.86.43,1.13.27.27.65.41,1.13.41.4,0,.76-.04,1.09-.12s.67-.2,1.03-.37v1.32c-.31.15-.64.27-.97.34s-.74.11-1.23.11c-.63,0-1.18-.12-1.66-.35-.48-.23-.86-.58-1.13-1.05-.28-.47-.41-1.07-.41-1.79s.12-1.33.37-1.82c.25-.49.59-.86,1.04-1.1.44-.24.96-.37,1.55-.37ZM224.66,12.42c-.34,0-.61.11-.82.32-.21.21-.34.55-.38,1h2.39c0-.37-.11-.69-.3-.94s-.49-.38-.89-.38Z"/><path class="cls-1" d="M232.39,11.21c.67,0,1.21.18,1.62.54.4.36.61.94.61,1.75v4.08h-1.71v-3.65c0-.45-.08-.79-.24-1.01-.16-.23-.42-.34-.77-.34-.52,0-.87.18-1.07.53-.19.35-.29.86-.29,1.53v2.94h-1.71v-6.25h1.31l.23.8h.09c.2-.32.47-.55.82-.7.35-.15.72-.22,1.11-.22Z"/></g></svg>