<?xml version="1.0" encoding="UTF-8"?><svg xmlns="http://www.w3.org/2000/svg" viewBox="0 0 212.79 62.93"><defs><style>.cls-1{fill:#42403d;}.cls-1,.cls-2{stroke-width:0px;}.cls-2{fill:#f5bb36;}</style></defs><g id="Warstwa_2"><rect class="cls-2" x="0" y="0" width="212.79" height="62.93" rx="31.46" ry="31.46"/></g><g id="Warstwa_3"><path class="cls-1" d="M32.89,30.52c-.34,0-.63-.02-.88-.05-.25-.03-.47-.08-.66-.14v-2.18c.18.05.38.09.58.12.2.03.42.05.65.05.3,0,.57-.06.82-.17.25-.12.44-.33.58-.65.14-.32.21-.78.21-1.39v-11.59h2.61v11.57c0,1.06-.16,1.92-.49,2.57-.33.65-.79,1.13-1.38,1.42s-1.27.44-2.04.44Z"/><path class="cls-1" d="M43.61,17.25c1.3,0,2.34.37,3.1,1.12s1.14,1.8,1.14,3.18v1.25h-6.1c.02.73.24,1.3.65,1.71.41.42.98.62,1.71.62.6,0,1.15-.06,1.65-.18.5-.12,1.02-.31,1.55-.56v1.99c-.47.23-.96.4-1.47.51s-1.13.16-1.85.16c-.95,0-1.78-.18-2.51-.53-.73-.35-1.3-.88-1.71-1.59-.42-.71-.62-1.61-.62-2.71s.19-2.01.56-2.75c.38-.74.9-1.29,1.57-1.66.67-.37,1.45-.56,2.34-.56ZM43.63,19.08c-.51,0-.92.16-1.25.49-.32.32-.51.83-.57,1.51h3.62c-.01-.57-.16-1.04-.46-1.42-.29-.38-.74-.57-1.34-.57Z"/><path class="cls-1" d="M53.93,24.99c.29,0,.57-.03.83-.08.27-.05.53-.12.8-.22v1.92c-.28.13-.62.23-1.03.31-.41.08-.86.12-1.34.12-.57,0-1.07-.09-1.52-.28-.45-.19-.8-.5-1.06-.95-.26-.45-.39-1.09-.39-1.9v-4.56h-1.23v-1.09l1.42-.87.75-1.99h1.65v2.01h2.65v1.94h-2.65v4.56c0,.36.1.63.31.8.21.18.48.27.81.27Z"/><path class="cls-1" d="M64.05,26.88h-7.47v-1.52l4.38-5.96h-4.12v-1.97h7.05v1.68l-4.26,5.8h4.42v1.97Z"/><path class="cls-1" d="M69.9,24.99c.29,0,.57-.03.83-.08.27-.05.53-.12.8-.22v1.92c-.28.13-.62.23-1.03.31-.41.08-.86.12-1.34.12-.57,0-1.07-.09-1.52-.28-.45-.19-.8-.5-1.06-.95-.26-.45-.39-1.09-.39-1.9v-4.56h-1.23v-1.09l1.42-.87.75-1.99h1.65v2.01h2.65v1.94h-2.65v4.56c0,.36.1.63.31.8.21.18.48.27.81.27Z"/><path class="cls-1" d="M79.24,13.71c.38,0,.71.09.99.27.28.18.42.51.42,1s-.14.8-.42.99c-.28.19-.61.28-.99.28s-.72-.09-1-.28c-.27-.18-.41-.51-.41-.99s.14-.82.41-1c.27-.18.6-.27,1-.27ZM80.52,17.42v9.46h-2.58v-9.46h2.58Z"/><path class="cls-1" d="M88.59,17.25c1.02,0,1.83.28,2.44.82s.92,1.43.92,2.64v6.17h-2.58v-5.53c0-.68-.12-1.19-.36-1.53-.24-.34-.63-.51-1.16-.51-.79,0-1.32.27-1.61.81s-.43,1.31-.43,2.31v4.45h-2.58v-9.46h1.97l.35,1.21h.14c.3-.49.71-.84,1.24-1.06.53-.22,1.08-.33,1.67-.33Z"/><path class="cls-1" d="M99.83,19.36h-2.23v7.52h-2.58v-7.52h-1.42v-1.25l1.42-.69v-.69c0-.81.14-1.43.41-1.88s.66-.76,1.16-.94c.5-.18,1.09-.28,1.78-.28.5,0,.95.04,1.37.12.42.08.75.17,1,.28l-.66,1.89c-.2-.06-.41-.11-.65-.16-.24-.05-.5-.08-.79-.08-.36,0-.62.11-.79.33-.17.22-.25.5-.25.83v.59h2.23v1.94Z"/><path class="cls-1" d="M109.89,22.13c0,1.57-.41,2.78-1.24,3.64-.83.86-1.95,1.28-3.37,1.28-.88,0-1.66-.19-2.35-.57s-1.23-.94-1.62-1.67-.59-1.62-.59-2.68c0-1.57.41-2.78,1.23-3.62.82-.84,1.95-1.26,3.38-1.26.89,0,1.67.19,2.36.57s1.22.94,1.61,1.66.59,1.61.59,2.65ZM103.36,22.13c0,.94.15,1.64.46,2.12.31.48.81.72,1.5.72s1.17-.24,1.48-.72c.31-.48.46-1.19.46-2.12s-.15-1.64-.46-2.1c-.31-.47-.81-.7-1.5-.7s-1.18.23-1.48.7c-.31.47-.46,1.17-.46,2.1Z"/><path class="cls-1" d="M117.31,17.25c.13,0,.28,0,.45.02.17.01.31.03.42.05l-.19,2.42c-.09-.02-.21-.04-.36-.06-.15-.02-.28-.03-.4-.03-.44,0-.86.08-1.26.23-.4.16-.73.41-.98.75s-.37.82-.37,1.42v4.81h-2.58v-9.46h1.96l.38,1.59h.12c.28-.48.66-.9,1.14-1.25s1.04-.52,1.68-.52Z"/><path class="cls-1" d="M130.99,17.25c1.07,0,1.89.28,2.43.82.55.55.82,1.43.82,2.64v6.17h-2.58v-5.53c0-1.36-.47-2.04-1.42-2.04-.68,0-1.17.24-1.45.73-.29.49-.43,1.18-.43,2.1v4.75h-2.58v-5.53c0-1.36-.47-2.04-1.42-2.04-.72,0-1.21.27-1.48.81-.27.54-.41,1.31-.41,2.31v4.45h-2.58v-9.46h1.97l.35,1.21h.14c.29-.49.68-.84,1.19-1.06.5-.22,1.02-.33,1.57-.33.69,0,1.28.11,1.76.34.48.22.85.57,1.12,1.05h.23c.29-.49.69-.84,1.2-1.06.51-.22,1.04-.33,1.58-.33Z"/><path class="cls-1" d="M138.19,13.71c.38,0,.71.09.99.27.28.18.42.51.42,1s-.14.8-.42.99c-.28.19-.61.28-.99.28s-.73-.09-1-.28c-.27-.18-.41-.51-.41-.99s.14-.82.41-1c.27-.18.6-.27,1-.27ZM139.48,17.42v9.46h-2.58v-9.46h2.58Z"/><path class="cls-1" d="M146.07,17.25c1.31,0,2.34.37,3.1,1.12.76.74,1.14,1.8,1.14,3.18v1.25h-6.1c.02.73.24,1.3.65,1.71.41.42.98.62,1.71.62.6,0,1.15-.06,1.65-.18.5-.12,1.02-.31,1.55-.56v1.99c-.47.23-.96.4-1.47.51-.51.11-1.13.16-1.85.16-.95,0-1.78-.18-2.51-.53-.73-.35-1.3-.88-1.71-1.59-.42-.71-.62-1.61-.62-2.71s.19-2.01.56-2.75.9-1.29,1.57-1.66c.67-.37,1.45-.56,2.34-.56ZM146.09,19.08c-.51,0-.92.16-1.25.49s-.51.83-.57,1.51h3.62c-.01-.57-.16-1.04-.46-1.42-.29-.38-.74-.57-1.34-.57Z"/><path class="cls-1" d="M157.7,17.25c.13,0,.28,0,.45.02.17.01.31.03.42.05l-.19,2.42c-.09-.02-.21-.04-.36-.06-.15-.02-.28-.03-.4-.03-.44,0-.86.08-1.26.23s-.73.41-.98.75c-.25.35-.37.82-.37,1.42v4.81h-2.58v-9.46h1.96l.38,1.59h.12c.28-.48.66-.9,1.14-1.25s1.05-.52,1.68-.52Z"/><path class="cls-1" d="M163.83,17.25c1.3,0,2.34.37,3.1,1.12.76.74,1.14,1.8,1.14,3.18v1.25h-6.1c.02.73.24,1.3.65,1.71.41.42.98.62,1.71.62.6,0,1.15-.06,1.65-.18.5-.12,1.02-.31,1.55-.56v1.99c-.47.23-.96.4-1.47.51-.51.11-1.12.16-1.85.16-.95,0-1.78-.18-2.51-.53-.73-.35-1.3-.88-1.71-1.59-.42-.71-.62-1.61-.62-2.71s.19-2.01.56-2.75c.37-.74.9-1.29,1.57-1.66.67-.37,1.45-.56,2.34-.56ZM163.84,19.08c-.51,0-.92.16-1.25.49-.32.32-.51.83-.57,1.51h3.62c-.01-.57-.16-1.04-.46-1.42-.29-.38-.74-.57-1.34-.57Z"/><path class="cls-1" d="M175.54,17.25c1.02,0,1.83.28,2.44.82.61.55.92,1.43.92,2.64v6.17h-2.58v-5.53c0-.68-.12-1.19-.36-1.53-.24-.34-.63-.51-1.16-.51-.79,0-1.32.27-1.61.81s-.43,1.31-.43,2.31v4.45h-2.58v-9.46h1.98l.35,1.21h.14c.3-.49.71-.84,1.24-1.06.53-.22,1.08-.33,1.67-.33Z"/><path class="cls-1" d="M34.25,38.21v9.46h-1.97l-.35-1.21h-.14c-.3.49-.71.84-1.24,1.06-.53.22-1.08.33-1.67.33-1.02,0-1.83-.27-2.44-.82-.61-.55-.92-1.43-.92-2.64v-6.17h2.58v5.53c0,.68.12,1.19.36,1.53s.63.51,1.16.51c.79,0,1.32-.27,1.61-.8.29-.54.43-1.31.43-2.31v-4.45h2.58Z"/><path class="cls-1" d="M42.32,38.03c1.02,0,1.83.28,2.44.82s.92,1.43.92,2.64v6.17h-2.58v-5.53c0-.68-.12-1.19-.36-1.53-.24-.34-.63-.51-1.16-.51-.79,0-1.32.27-1.61.81s-.43,1.31-.43,2.31v4.45h-2.58v-9.46h1.97l.35,1.21h.14c.3-.49.71-.84,1.24-1.06.53-.22,1.08-.33,1.67-.33Z"/><path class="cls-1" d="M51.32,47.84c-1.05,0-1.91-.41-2.57-1.24s-1-2.04-1-3.65.33-2.84,1-3.67c.67-.83,1.55-1.25,2.63-1.25.68,0,1.24.13,1.68.4.44.27.79.59,1.04.99h.09c-.03-.19-.08-.45-.12-.81-.05-.35-.07-.71-.07-1.08v-3.03h2.58v13.16h-1.97l-.5-1.23h-.1c-.25.39-.6.72-1.02,1-.43.27-.98.41-1.66.41ZM52.22,45.77c.7,0,1.2-.21,1.49-.63.29-.42.44-1.05.47-1.9v-.28c0-.91-.14-1.61-.42-2.1-.28-.49-.81-.74-1.57-.74-.57,0-1.01.25-1.33.74s-.48,1.2-.48,2.12.16,1.62.48,2.09c.32.47.78.7,1.37.7Z"/><path class="cls-1" d="M69.25,37.31c-1,0-1.77.37-2.3,1.13-.53.75-.8,1.78-.8,3.08s.25,2.34.74,3.06c.49.72,1.28,1.08,2.36,1.08.5,0,1-.06,1.51-.17.51-.12,1.06-.28,1.65-.48v2.2c-.54.22-1.08.38-1.61.49-.53.1-1.13.16-1.78.16-1.28,0-2.33-.26-3.15-.79-.82-.53-1.43-1.26-1.82-2.22-.39-.95-.59-2.06-.59-3.33s.23-2.35.68-3.31c.45-.96,1.11-1.71,1.97-2.25s1.91-.81,3.16-.81c.61,0,1.23.08,1.84.23s1.21.37,1.78.63l-.85,2.13c-.46-.22-.93-.41-1.39-.57-.47-.16-.93-.24-1.38-.24Z"/><path class="cls-1" d="M77.41,34.5v2.68c0,.47-.01.92-.04,1.34-.03.42-.06.72-.08.89h.14c.3-.49.69-.84,1.16-1.06.47-.22,1-.33,1.58-.33,1.02,0,1.84.28,2.46.82.62.55.94,1.43.94,2.64v6.17h-2.58v-5.53c0-1.36-.51-2.04-1.52-2.04-.77,0-1.31.27-1.6.81s-.44,1.31-.44,2.31v4.45h-2.58v-13.16h2.58Z"/><path class="cls-1" d="M90.1,38.03c1.3,0,2.34.37,3.1,1.12s1.14,1.8,1.14,3.18v1.25h-6.1c.02.73.24,1.3.65,1.71.41.42.98.62,1.71.62.6,0,1.15-.06,1.65-.18.5-.12,1.02-.31,1.55-.56v1.99c-.47.23-.96.4-1.47.51s-1.13.16-1.85.16c-.95,0-1.78-.18-2.51-.53-.73-.35-1.3-.88-1.71-1.59-.42-.71-.62-1.61-.62-2.71s.19-2.01.56-2.75c.38-.74.9-1.29,1.57-1.66.67-.37,1.45-.56,2.34-.56ZM90.12,39.87c-.51,0-.92.16-1.25.49-.32.32-.51.83-.57,1.51h3.62c-.01-.57-.16-1.04-.46-1.42-.29-.38-.74-.57-1.34-.57Z"/><path class="cls-1" d="M100.29,47.84c-1.41,0-2.5-.39-3.26-1.16-.77-.77-1.15-2-1.15-3.69,0-1.16.2-2.1.59-2.82s.94-1.26,1.64-1.61c.7-.35,1.5-.52,2.42-.52.65,0,1.21.06,1.69.19.48.13.9.28,1.26.45l-.76,1.99c-.4-.16-.78-.29-1.13-.4-.35-.1-.7-.16-1.05-.16-1.34,0-2.01.95-2.01,2.86,0,.95.18,1.65.53,2.1.35.45.85.68,1.48.68.54,0,1.02-.07,1.44-.22s.82-.34,1.21-.6v2.2c-.39.25-.81.44-1.24.55s-.98.16-1.64.16Z"/><path class="cls-1" d="M107.93,34.5v5.89c0,.36-.01.71-.04,1.06-.03.35-.06.71-.1,1.06h.03c.17-.24.35-.49.54-.73.18-.24.38-.48.59-.71l2.65-2.88h2.91l-3.76,4.11,3.98,5.35h-2.98l-2.72-3.83-1.11.88v2.94h-2.58v-13.16h2.58Z"/><path class="cls-1" d="M131.69,38.03c1.07,0,1.89.28,2.43.82s.82,1.43.82,2.64v6.17h-2.58v-5.53c0-1.36-.47-2.04-1.42-2.04-.68,0-1.17.24-1.46.73s-.43,1.18-.43,2.1v4.75h-2.58v-5.53c0-1.36-.47-2.04-1.42-2.04-.72,0-1.21.27-1.48.81-.27.54-.41,1.31-.41,2.31v4.45h-2.58v-9.46h1.98l.35,1.21h.14c.29-.49.68-.84,1.19-1.06.5-.22,1.03-.33,1.57-.33.69,0,1.28.11,1.76.34.48.22.85.57,1.12,1.05h.23c.29-.49.69-.84,1.2-1.06.51-.22,1.04-.33,1.58-.33Z"/><path class="cls-1" d="M141.48,38.02c1.27,0,2.24.27,2.92.82.68.55,1.01,1.39,1.01,2.52v6.3h-1.8l-.5-1.28h-.07c-.4.51-.83.88-1.28,1.11-.45.23-1.07.35-1.85.35-.84,0-1.54-.24-2.1-.73s-.83-1.24-.83-2.27.35-1.74,1.06-2.22c.7-.47,1.76-.74,3.17-.8l1.65-.05v-.42c0-.5-.13-.86-.39-1.09-.26-.23-.62-.35-1.08-.35s-.91.07-1.35.2c-.44.13-.88.3-1.32.49l-.85-1.75c.5-.25,1.06-.46,1.68-.61.62-.16,1.27-.23,1.94-.23ZM142.84,43.28l-1.01.03c-.83.02-1.41.17-1.73.45-.32.28-.49.64-.49,1.09,0,.39.12.67.35.84.23.17.53.25.9.25.55,0,1.02-.16,1.4-.49.38-.33.57-.79.57-1.39v-.78Z"/><path class="cls-1" d="M151.9,47.84c-1.41,0-2.5-.39-3.26-1.16-.77-.77-1.15-2-1.15-3.69,0-1.16.2-2.1.59-2.82s.94-1.26,1.64-1.61c.7-.35,1.5-.52,2.42-.52.65,0,1.21.06,1.69.19.48.13.9.28,1.26.45l-.76,1.99c-.4-.16-.78-.29-1.13-.4s-.7-.16-1.05-.16c-1.34,0-2.01.95-2.01,2.86,0,.95.18,1.65.53,2.1.35.45.84.68,1.48.68.54,0,1.02-.07,1.44-.22.42-.14.82-.34,1.21-.6v2.2c-.39.25-.81.44-1.24.55s-.98.16-1.64.16Z"/><path class="cls-1" d="M159.54,34.5v2.68c0,.47-.01.92-.04,1.34s-.06.72-.08.89h.14c.3-.49.69-.84,1.16-1.06.47-.22,1-.33,1.58-.33,1.02,0,1.84.28,2.46.82s.94,1.43.94,2.64v6.17h-2.58v-5.53c0-1.36-.51-2.04-1.52-2.04-.77,0-1.31.27-1.6.81s-.44,1.31-.44,2.31v4.45h-2.58v-13.16h2.58Z"/><path class="cls-1" d="M172.24,38.03c1.3,0,2.34.37,3.1,1.12.76.74,1.14,1.8,1.14,3.18v1.25h-6.1c.02.73.24,1.3.65,1.71.41.42.98.62,1.71.62.6,0,1.15-.06,1.65-.18.5-.12,1.02-.31,1.55-.56v1.99c-.47.23-.96.4-1.47.51-.51.11-1.12.16-1.85.16-.95,0-1.78-.18-2.51-.53-.73-.35-1.3-.88-1.71-1.59-.42-.71-.62-1.61-.62-2.71s.19-2.01.56-2.75c.37-.74.9-1.29,1.57-1.66.67-.37,1.45-.56,2.34-.56ZM172.25,39.87c-.51,0-.92.16-1.25.49-.32.32-.51.83-.57,1.51h3.62c-.01-.57-.16-1.04-.46-1.42-.29-.38-.74-.57-1.34-.57Z"/><path class="cls-1" d="M183.94,38.03c1.02,0,1.83.28,2.44.82.61.55.92,1.43.92,2.64v6.17h-2.58v-5.53c0-.68-.12-1.19-.36-1.53-.24-.34-.63-.51-1.16-.51-.79,0-1.32.27-1.61.81s-.43,1.31-.43,2.31v4.45h-2.58v-9.46h1.98l.35,1.21h.14c.3-.49.71-.84,1.24-1.06.53-.22,1.08-.33,1.67-.33Z"/></g></svg>