<?xml version="1.0" encoding="UTF-8"?><svg id="Warstwa_1" xmlns="http://www.w3.org/2000/svg" viewBox="0 0 364.96 149.05"><defs><style>.cls-1{fill:#fff;stroke-width:0px;}</style></defs><g id="U0Oxs3"><path class="cls-1" d="M123.12,63.18c-1.37-1.78-2.97-3.34-4.64-4.83-3.99-3.54-8.41-6.47-13.02-9.12-6.79-3.9-13.91-7.1-21.22-9.88-8.74-3.33-17.69-6.01-26.8-8.15-4.77-1.12-9.56-2.08-14.4-2.87-2.95-.48-5.91-.91-8.88-1.28-2.89-.36-5.8-.62-8.7-.89-.29-.03-.58-.03-.87-.04-.23-.01-.3-.1-.23-.34.22-.77.42-1.54.63-2.3,2.1-7.72,4.2-15.44,6.3-23.16.03-.11.08-.22.12-.33.04,0,.08,0,.12,0,.2.12.43.03.64.06.25.03.51-.06.76.05,2.26.2,4.53.37,6.79.61,2.86.3,5.71.68,8.55,1.11,4.38.66,8.74,1.46,13.07,2.39,5.49,1.19,10.92,2.59,16.3,4.22,8.51,2.57,16.83,5.65,24.88,9.45,6.09,2.88,11.97,6.12,17.44,10.08,2.71,1.97,5.29,4.09,7.61,6.52,2.08,2.17,3.92,4.52,5.21,7.27.84,1.78,1.36,3.64,1.43,5.61.04,1.37-.19,2.71-.48,4.04-.71,3.21-1.65,6.35-2.5,9.52-1.23,4.57-2.48,9.14-3.73,13.72-.03.11-.05.23-.13.32-.18-.19-.16-.44-.14-.66.3-3.65-1.17-6.72-3.15-9.63-.33-.49-.83-.88-.96-1.5Z"/><path class="cls-1" d="M343.58,75.39c1.17-1.77,2.48-3.43,4.05-4.87,1.83-1.67,3.87-3,6.26-3.7,1.95-.57,3.94-.75,5.91-.15,2.31.7,3.98,2.12,4.82,4.43.12.33.21.67.23,1.02.07.11-.02.26.09.36v2.22c-.11.1-.02.25-.1.36-.36,3.03-2.89,5.69-5.88,6.14-.87.13-1.75.1-2.61-.12-1.05-.27-1.92-.84-2.58-1.7-.44-.57-.79-1.2-1.11-1.85-.29-.57-.55-1.16-.92-1.69-.82-1.17-1.91-1.47-3.21-.87-.9.42-1.63,1.06-2.3,1.77-1.59,1.68-2.8,3.63-3.87,5.67-1.52,2.89-2.5,5.98-3.33,9.12-1.42,5.33-2.88,10.65-4.32,15.97-.14.51-.14.52-.6.52-4.24,0-8.48,0-12.73,0-.09,0-.19-.02-.27-.03-.11-.18,0-.32.03-.46,3.02-11.21,6.05-22.43,9.07-33.64.57-2.12,1.14-4.24,1.71-6.36.14-.52.14-.53.64-.53,4.18,0,8.37,0,12.55,0,.13,0,.27.01.49.03-.73,2.77-1.44,5.5-2.16,8.23-.03.05-.05.1,0,.14.05.05.09,0,.13-.03Z"/><path class="cls-1" d="M195.43,148.94s0,.08,0,.12h-13.54c0-.13,0-.26.11-.36,1.75.12,3.5.04,5.25.05,2.43.01,4.86,0,7.29,0,.3,0,.63-.06.89.18Z"/><path class="cls-1" d="M0,85.56c.22-.14.02-.44.22-.59.11.09.17.22.17.36-.03.82.22,1.66-.17,2.45-.21-.14,0-.44-.22-.59v-1.63Z"/><path class="cls-1" d="M32.92.11c-.27,0-.54,0-.81,0-.04-.02-.06-.04-.05-.07C32.08.01,32.09,0,32.11,0h.82s0,.08,0,.11Z"/><path class="cls-1" d="M32.11,0s0,.07,0,.11c-.2,0-.42.08-.59-.11h.58Z"/><path class="cls-1" d="M364.96,72.48c-.11-.1-.13-.22-.09-.36.03-.01.06,0,.09.01v.35Z"/><path class="cls-1" d="M364.85,75.06c-.01-.13-.06-.27.1-.36v.35s-.07,0-.1,0Z"/><path class="cls-1" d="M.22,87.78c0-.94,0-1.87,0-2.81.42-2.87,1.23-5.65,1.99-8.44,1.56-5.73,3.12-11.46,4.68-17.19.03-.11.08-.22.12-.32.2.21.16.47.15.72-.27,3.82,1.23,7.03,3.4,10.02.26.36.62.65.69,1.12.89,1.21,1.93,2.29,3.01,3.33,4.49,4.35,9.64,7.78,15.05,10.86,6.13,3.49,12.52,6.41,19.08,8.98,8.26,3.24,16.71,5.88,25.31,8.04,5.41,1.36,10.87,2.5,16.36,3.44,3.64.62,7.29,1.15,10.96,1.59,2.91.35,5.84.62,8.76.84.08,0,.15.02.27.03-.09.65-.3,1.25-.47,1.85-2.12,7.8-4.24,15.59-6.37,23.39-.04.13-.09.26-.11.39-.03.38-.27.41-.57.39-1.34-.1-2.68-.17-4.01-.3-1.74-.16-3.48-.35-5.22-.53-2.22-.23-4.44-.54-6.65-.86-3.15-.46-6.29-1-9.42-1.62-6.83-1.34-13.58-3-20.25-5.01-8.61-2.59-17.02-5.7-25.16-9.54-5.79-2.74-11.39-5.82-16.64-9.51-2.72-1.92-5.32-4-7.68-6.35-2.27-2.26-4.29-4.72-5.74-7.61-.78-1.56-1.3-3.2-1.55-4.93Z"/><path class="cls-1" d="M195.43,148.94c-4.27,0-8.54,0-12.81,0-.22,0-.53.15-.62-.24.46-1.69.91-3.37,1.37-5.06,3.95-14.36,7.89-28.73,11.84-43.09,3.32-12.06,6.64-24.12,9.95-36.18,1.03-3.77,2.12-7.52,3.57-11.15,1.57-3.95,3.46-7.74,6.02-11.15,2.29-3.05,5.01-5.63,8.4-7.45,2.38-1.29,4.92-2.1,7.6-2.52,1.99-.31,3.99-.42,5.99-.31,2.92.15,5.75.72,8.36,2.09,2.66,1.4,4.69,3.39,5.73,6.26.81,2.23,1,4.52.23,6.8-1.25,3.71-4.66,5.85-7.94,5.98-2.07.08-3.93-.43-5.48-1.84-1.58-1.43-2.2-3.24-2.01-5.36.1-1.1.47-2.12.94-3.11.23-.49.45-.99.58-1.52.36-1.41-.24-2.61-1.59-3.16-1-.41-2.05-.42-3.1-.27-2.54.35-4.45,1.73-6,3.7-1.41,1.8-2.34,3.85-3.02,6.01-1.52,4.78-2.81,9.62-4.1,14.46-.43,1.63-.89,3.26-1.34,4.89-.02.07-.03.15-.07.3,1.85.04,3.67.01,5.48.02,1.83,0,3.66,0,5.49,0h10.97c1.83,0,3.65,0,5.46,0,.09.25,0,.43-.06.61-1.72,6.38-3.44,12.75-5.16,19.13-1.87,6.92-3.74,13.84-5.6,20.76-.17.62-.19.52-.65.52-4.16,0-8.33,0-12.49,0-.15,0-.31.03-.52-.08,3.06-11.36,6.13-22.73,9.2-34.09-.25-.11-.46-.07-.67-.07-4.2,0-8.41,0-12.61,0-.88,0-.69-.1-.92.71-1.84,6.68-3.67,13.37-5.51,20.06-3.67,13.39-7.35,26.79-11.02,40.18-1.27,4.63-2.54,9.25-3.81,13.88-.03.11-.08.22-.12.32Z"/><path class="cls-1" d="M11.25,70.88c-1.93-2.32-3.4-4.89-4.07-7.86-.23-1.01-.2-2.04-.19-3.06,0-.31.01-.62.02-.93.58-2.85,1.82-5.4,3.66-7.65,2-2.45,4.49-4.28,7.25-5.78,3.2-1.73,6.61-2.91,10.12-3.79,3.07-.77,6.19-1.3,9.34-1.67,3.63-.43,7.27-.65,10.93-.71,1.46-.03,2.92-.06,4.37-.03,3.03.06,6.06.16,9.08.38,2.5.18,5,.39,7.49.64,1.57.16,3.13.36,4.69.55.1.01.2,0,.31.11-.17.63-.33,1.28-.51,1.94-2.15,7.9-4.31,15.81-6.46,23.71-.03.09-.04.19-.06.29l-.04.04h-.05c-1.8-.2-3.59-.41-5.39-.58-1.53-.15-3.06-.27-4.59-.4-2.54-.21-5.08-.32-7.62-.44-1.22-.06-2.45-.07-3.67-.08-2.55-.02-5.09-.03-7.64.07-2.1.09-4.19.21-6.28.4-2.28.21-4.56.48-6.82.86-4.79.79-9.46,1.96-13.89,4Z"/><path class="cls-1" d="M67.14,67.03s.06-.02.09-.03c.83.11,1.65.23,2.49.32,2.09.21,4.18.42,6.27.6,2.15.18,4.3.31,6.46.42,4.08.21,8.16.25,12.24.16,2.68-.06,5.36-.21,8.03-.46,5.21-.5,10.36-1.31,15.37-2.89,1.72-.54,3.42-1.16,5.04-1.96,1.63,1.99,2.95,4.17,3.74,6.64.36,1.13.53,2.3.59,3.48.03.56-.12,1.11-.09,1.68-.64,3.2-2.09,6-4.27,8.42-2.3,2.55-5.12,4.41-8.2,5.87-3.64,1.73-7.47,2.84-11.41,3.65-2.8.57-5.63.97-8.47,1.25-2.01.2-4.03.32-6.05.41-3.19.14-6.38.14-9.57.06-2.62-.06-5.24-.2-7.86-.4-1.49-.12-2.98-.24-4.47-.37-2.21-.2-4.41-.46-6.61-.72-.36-.04-.37-.06-.26-.46.58-2.14,1.16-4.27,1.75-6.41,1.71-6.28,3.41-12.56,5.12-18.84.04-.13.06-.26.09-.4Z"/><path class="cls-1" d="M239.29,107.91c8.92-11.35,17.83-22.68,26.82-34.12h-17.33c.32-1.23.62-2.39.92-3.55.24-.94.5-1.88.72-2.82.07-.3.21-.43.52-.39.08.01.16,0,.23,0,11.52,0,23.04,0,34.56,0,.17,0,.35,0,.51,0,.02.04.03.06.03.08,0,.02,0,.04,0,.05,0,.02-.01.04-.02.05-.03.05-.07.09-.1.14-8.86,11.25-17.71,22.49-26.57,33.74-.01.01,0,.03-.02.09.2.14.43.07.65.07,5.23,0,10.47,0,15.7,0,.8,0,1.6,0,2.39,0,.19,0,.39-.06.6.1-.22.85-.45,1.7-.67,2.56-.32,1.22-.63,2.45-.95,3.67-.12.44-.12.45-.59.45-12.34,0-24.67,0-37.01,0-.11,0-.24.04-.39-.12Z"/><path class="cls-1" d="M343.58,75.39c-.02.11-.08.2-.18.27-.08-.15-.05-.27.06-.38.04.04.08.08.12.12Z"/><path class="cls-1" d="M199.59,61.05c-.61-5.23-3.35-9.16-7.9-11.8-3.26-1.89-6.83-2.64-10.56-2.67-3.48-.03-6.96,0-10.45,0-3.83,0-7.66,0-11.5,0-.54,0-.54,0-.69.54-2.67,9.82-5.34,19.64-8,29.46-2.79,10.29-5.59,20.58-8.38,30.86-.16.6-.16.6.45.6,4.28,0,8.56,0,12.84,0,.1,0,.19,0,.29,0,.19,0,.29-.08.32-.26.02-.11.06-.22.09-.34,1.95-7.18,3.9-14.36,5.84-21.53.14-.5.14-.51.66-.51,1.52,0,3.03,0,4.55,0,2.84-.02,5.68.06,8.52-.04,2.86-.1,5.64-.62,8.34-1.55,4.1-1.41,7.71-3.6,10.58-6.89,3.98-4.55,5.69-9.87,4.99-15.86ZM183.57,71.25c-1.52,2.47-3.71,4.16-6.34,5.3-2.33,1.01-4.78,1.47-7.3,1.59-1.92.09-3.85.02-5.87.05.24-.91.46-1.73.68-2.55,1.92-7.06,3.83-14.13,5.75-21.19.03-.11.07-.22.09-.34.04-.23.17-.32.41-.31.37.02.74,0,1.11,0,1.34,0,2.68-.03,4.03,0,2.6.07,4.93.86,6.79,2.75,1.32,1.34,2.13,2.98,2.44,4.82.59,3.49.1,6.82-1.78,9.87Z"/><path class="cls-1" d="M321.41,77.31c-1.14-4.37-3.68-7.63-7.78-9.59-3.52-1.68-7.26-2.08-11.1-1.71-2.62.25-5.08,1.11-7.39,2.38-3.71,2.03-6.7,4.86-8.99,8.4-3.71,5.73-5.03,11.96-3.49,18.66,1.24,5.38,4.41,9.27,9.44,11.58,3.14,1.45,6.49,1.99,9.92,2.06,2.19.05,4.35-.16,6.48-.65,3.26-.74,6.29-2,9.03-3.94.46-.32.46-.33.25-.84-.69-1.71-1.37-3.43-2.06-5.14-.06-.16-.09-.34-.23-.45-.17.02-.27.15-.4.24-.95.68-1.94,1.29-3,1.79-3.08,1.43-6.28,2.14-9.69,1.57-1.96-.32-3.66-1.15-5.02-2.62-1.11-1.19-1.8-2.62-2.23-4.18-.51-1.81-.63-3.67-.59-5.54.02-.91,0-.75.76-.75,8.37,0,16.73,0,25.1,0,.14,0,.27-.01.41,0,.24.02.35-.08.4-.31.11-.55.25-1.1.36-1.65.61-3.11.64-6.22-.17-9.3ZM310.69,81.9c-.06.48-.05.49-.5.49-4.74,0-9.48,0-14.23,0-.11,0-.23.02-.35-.06-.04-.3.11-.56.2-.83.64-2.01,1.53-3.9,2.87-5.56,1.1-1.37,2.41-2.48,4.12-3.03,1.37-.45,2.76-.44,4.12-.01,1.38.43,2.32,1.37,2.92,2.67.45.96.68,1.98.79,3.03.11,1.1.2,2.2.06,3.31Z"/></g></svg>