<?xml version="1.0" encoding="UTF-8"?><svg id="Warstwa_3" xmlns="http://www.w3.org/2000/svg" viewBox="0 0 202.08 60.13"><defs><style>.cls-1{fill:#42403d;stroke-width:0px;}</style></defs><path class="cls-1" d="M12.27,21.07H2.29V3.52h9.98v2.63h-6.83v4.47h6.39v2.63h-6.39v5.16h6.83v2.66Z"/><path class="cls-1" d="M24.78,17.21c0,1.34-.48,2.36-1.44,3.06-.96.7-2.33,1.04-4.12,1.04-.93,0-1.73-.07-2.4-.2-.66-.13-1.31-.33-1.93-.61v-2.63c.66.31,1.38.57,2.18.79s1.54.32,2.25.32c.85,0,1.47-.13,1.84-.39.38-.26.57-.61.57-1.06,0-.26-.07-.5-.22-.7s-.43-.43-.86-.68c-.43-.25-1.07-.55-1.94-.91-.85-.34-1.56-.69-2.13-1.03-.57-.34-.99-.75-1.28-1.23-.29-.48-.43-1.09-.43-1.84,0-1.2.48-2.1,1.43-2.72s2.2-.92,3.76-.92c.82,0,1.59.08,2.32.25.73.16,1.46.41,2.2.74l-.98,2.29c-.62-.26-1.23-.48-1.82-.66-.59-.18-1.2-.27-1.82-.27-1.36,0-2.04.38-2.04,1.16,0,.28.09.52.26.71.17.2.48.41.91.63.43.22,1.05.49,1.86.8.79.31,1.47.63,2.04.97.57.34,1.02.75,1.33,1.23.31.48.47,1.11.47,1.88Z"/><path class="cls-1" d="M37.22,2.38v8.88c0,.41-.02.86-.05,1.34-.03.48-.07.94-.1,1.36h.07c.21-.29.46-.63.74-1.01.28-.38.56-.71.84-1.01l3.93-4.2h3.52l-5.33,5.75,5.68,7.57h-3.61l-4.13-5.7-1.55,1.28v4.42h-3.07V2.38h3.07Z"/><path class="cls-1" d="M60.5,14.38c0,2.21-.57,3.92-1.72,5.12-1.15,1.21-2.7,1.81-4.67,1.81-1.21,0-2.29-.27-3.25-.81s-1.7-1.33-2.24-2.36c-.54-1.03-.81-2.29-.81-3.76,0-2.21.57-3.91,1.71-5.1,1.14-1.19,2.69-1.78,4.66-1.78,1.23,0,2.32.27,3.27.8.95.53,1.7,1.31,2.24,2.34.54,1.02.81,2.27.81,3.75ZM50.3,4.25c0-.52.14-.9.43-1.13.29-.23.63-.34,1.04-.34s.74.11,1.04.34c.3.23.46.61.46,1.13,0,.49-.15.86-.46,1.09-.3.24-.65.36-1.04.36s-.76-.12-1.04-.36c-.29-.24-.43-.6-.43-1.09ZM50.99,14.38c0,1.41.25,2.5.75,3.27.5.77,1.31,1.16,2.42,1.16s1.9-.38,2.41-1.16.76-1.86.76-3.27-.25-2.49-.76-3.25-1.32-1.13-2.43-1.13-1.92.38-2.41,1.13c-.49.75-.74,1.84-.74,3.25ZM55.07,4.25c0-.52.14-.9.43-1.13s.63-.34,1.04-.34.74.11,1.04.34c.3.23.46.61.46,1.13,0,.49-.15.86-.46,1.09-.3.24-.65.36-1.04.36s-.76-.12-1.04-.36c-.29-.24-.43-.6-.43-1.09Z"/><path class="cls-1" d="M70.83,7.5c1.49,0,2.66.39,3.5,1.16.84.77,1.27,2.02,1.27,3.74v8.68h-3.1v-8.06c0-1-.2-1.75-.59-2.25s-1.02-.75-1.87-.75c-1.25,0-2.1.39-2.56,1.18-.46.79-.69,1.91-.69,3.37v6.51h-3.1V7.74h2.38l.44,1.75h.17c.43-.69,1.01-1.19,1.76-1.51s1.54-.48,2.37-.48Z"/><path class="cls-1" d="M86.61,7.5c1.49,0,2.66.39,3.5,1.16.84.77,1.27,2.02,1.27,3.74v8.68h-3.1v-8.06c0-1-.2-1.75-.59-2.25s-1.02-.75-1.87-.75c-1.25,0-2.1.39-2.56,1.18-.46.79-.69,1.91-.69,3.37v6.51h-3.1V7.74h2.38l.44,1.75h.17c.43-.69,1.01-1.19,1.76-1.51s1.54-.48,2.37-.48Z"/><path class="cls-1" d="M100.42,18.83c.38,0,.75-.04,1.12-.11.37-.07.71-.16,1.02-.26v2.31c-.33.16-.75.29-1.28.39-.53.1-1.07.15-1.65.15-.77,0-1.46-.12-2.08-.37-.62-.25-1.1-.68-1.46-1.3s-.54-1.5-.54-2.63v-6.93h-1.79v-1.35l1.97-1.08.98-2.83h1.94v2.93h3.79v2.33h-3.79v6.91c0,.62.17,1.09.5,1.39.34.3.76.46,1.27.46Z"/><path class="cls-1" d="M110.6,7.5c1.79,0,3.2.53,4.24,1.6,1.04,1.07,1.56,2.55,1.56,4.45v1.57h-8.8c.03,1.21.37,2.15,1.01,2.81.64.66,1.52,1,2.66,1,.85,0,1.62-.09,2.31-.26.69-.17,1.39-.42,2.11-.75v2.48c-.66.31-1.34.54-2.04.69-.7.15-1.55.22-2.53.22-1.31,0-2.47-.25-3.47-.75s-1.78-1.25-2.35-2.26-.85-2.27-.85-3.8c0-2.28.56-4.02,1.68-5.21,1.12-1.2,2.61-1.79,4.46-1.79ZM110.6,9.78c-.84,0-1.51.27-2.03.8-.52.53-.82,1.32-.9,2.37h5.73c-.02-.92-.25-1.68-.7-2.27-.45-.6-1.15-.9-2.1-.9Z"/><path class="cls-1" d="M131.28,7.5c1.79,0,3.2.53,4.24,1.6,1.04,1.07,1.56,2.55,1.56,4.45v1.57h-8.8c.03,1.21.37,2.15,1.01,2.81.64.66,1.52,1,2.66,1,.85,0,1.62-.09,2.31-.26.69-.17,1.39-.42,2.11-.75v2.48c-.66.31-1.34.54-2.04.69-.7.15-1.55.22-2.53.22-1.31,0-2.47-.25-3.47-.75s-1.78-1.25-2.35-2.26-.85-2.27-.85-3.8c0-2.28.56-4.02,1.68-5.21,1.12-1.2,2.61-1.79,4.46-1.79ZM131.28,9.78c-.84,0-1.51.27-2.03.8-.52.53-.82,1.32-.9,2.37h5.73c-.02-.92-.25-1.68-.7-2.27-.45-.6-1.15-.9-2.1-.9Z"/><path class="cls-1" d="M141.75,2.61c.46,0,.86.12,1.21.36.34.24.52.66.52,1.27s-.17,1.03-.52,1.28c-.34.25-.75.37-1.21.37s-.88-.12-1.22-.37-.5-.67-.5-1.28.17-1.03.5-1.27c.34-.24.74-.36,1.22-.36ZM143.3,7.74v13.32h-3.1V7.74h3.1Z"/><path class="cls-1" d="M154.39,7.5c1.49,0,2.66.39,3.5,1.16.84.77,1.27,2.02,1.27,3.74v8.68h-3.1v-8.06c0-1-.2-1.75-.59-2.25s-1.02-.75-1.87-.75c-1.25,0-2.1.39-2.56,1.18-.46.79-.69,1.91-.69,3.37v6.51h-3.1V7.74h2.38l.44,1.75h.17c.43-.69,1.01-1.19,1.76-1.51s1.54-.48,2.37-.48Z"/><path class="cls-1" d="M168.4,7.5c1.79,0,3.2.53,4.24,1.6,1.04,1.07,1.56,2.55,1.56,4.45v1.57h-8.8c.03,1.21.37,2.15,1.01,2.81.64.66,1.52,1,2.66,1,.85,0,1.62-.09,2.31-.26.69-.17,1.39-.42,2.11-.75v2.48c-.66.31-1.34.54-2.04.69-.7.15-1.55.22-2.53.22-1.31,0-2.47-.25-3.47-.75s-1.78-1.25-2.35-2.26-.85-2.27-.85-3.8c0-2.28.56-4.02,1.68-5.21,1.12-1.2,2.61-1.79,4.46-1.79ZM168.4,9.78c-.84,0-1.51.27-2.03.8-.52.53-.82,1.32-.9,2.37h5.73c-.02-.92-.25-1.68-.7-2.27-.45-.6-1.15-.9-2.1-.9Z"/><path class="cls-1" d="M13.13,50.57l-1.6-4.65h-6.61l-1.57,4.65H0l6.44-17.63h3.59l6.44,17.63h-3.34ZM10.72,43.22l-1.52-4.52c-.07-.21-.16-.52-.29-.92-.13-.4-.25-.81-.37-1.23s-.21-.77-.29-1.04c-.08.34-.18.73-.31,1.16-.12.43-.24.83-.34,1.2s-.19.66-.26.84l-1.55,4.52h4.94Z"/><path class="cls-1" d="M33.75,37c1.51,0,2.64.39,3.41,1.16.76.77,1.14,2.02,1.14,3.74v8.68h-3.1v-8.09c0-1.98-.75-2.97-2.26-2.97-1.08,0-1.85.35-2.31,1.06-.46.71-.69,1.73-.69,3.07v6.93h-3.1v-8.09c0-1.98-.76-2.97-2.29-2.97-1.13,0-1.91.39-2.34,1.18-.43.79-.64,1.91-.64,3.37v6.51h-3.1v-13.32h2.38l.44,1.75h.17c.41-.69.97-1.19,1.67-1.51.7-.32,1.44-.48,2.21-.48,1,0,1.84.16,2.52.49.68.33,1.2.85,1.56,1.57h.25c.41-.72.98-1.25,1.72-1.57.74-.33,1.52-.49,2.34-.49Z"/><path class="cls-1" d="M40.19,37.24h3.37l2.66,7.52c.18.48.33.95.44,1.41.11.47.2.93.25,1.39h.1c.07-.43.16-.88.29-1.36s.28-.96.44-1.44l2.56-7.52h3.34l-5.68,15.09c-.51,1.33-1.2,2.35-2.08,3.06-.88.71-1.96,1.07-3.23,1.07-.41,0-.77-.02-1.07-.06-.3-.04-.56-.09-.77-.14v-2.46c.18.03.4.07.65.1.25.03.52.05.8.05.75,0,1.36-.23,1.82-.68.46-.45.81-1.01,1.06-1.68l.39-1.08-5.33-13.28Z"/><path class="cls-1" d="M58.73,50.57h-3.1v-18.68h3.1v18.68Z"/><path class="cls-1" d="M74.59,43.88c0,2.21-.57,3.92-1.72,5.12-1.15,1.21-2.7,1.81-4.67,1.81-1.21,0-2.29-.27-3.25-.81s-1.7-1.33-2.24-2.36c-.54-1.03-.81-2.29-.81-3.76,0-2.21.57-3.91,1.71-5.1,1.14-1.19,2.69-1.78,4.66-1.78,1.23,0,2.32.27,3.27.8.95.53,1.7,1.31,2.24,2.34.54,1.02.81,2.27.81,3.75ZM65.07,43.88c0,1.41.25,2.5.75,3.27.5.77,1.31,1.16,2.42,1.16s1.9-.38,2.41-1.16.76-1.86.76-3.27-.25-2.49-.76-3.25-1.32-1.13-2.43-1.13-1.92.38-2.41,1.13c-.49.75-.74,1.84-.74,3.25Z"/><path class="cls-1" d="M79.33,32.11c.46,0,.86.12,1.21.36.34.24.52.66.52,1.27s-.17,1.03-.52,1.28c-.34.25-.75.37-1.21.37s-.88-.12-1.22-.37-.5-.67-.5-1.28.17-1.03.5-1.27c.34-.24.74-.36,1.22-.36ZM80.88,37.24v13.32h-3.1v-13.32h3.1Z"/><path class="cls-1" d="M89.24,50.81c-1.54,0-2.79-.58-3.75-1.73s-1.44-2.87-1.44-5.15.48-4.02,1.45-5.19c.97-1.16,2.24-1.75,3.81-1.75.98,0,1.79.19,2.42.57s1.13.84,1.51,1.38h.15c-.05-.23-.1-.58-.15-1.04-.05-.47-.07-.91-.07-1.34v-4.67h3.1v18.68h-2.41l-.57-1.75h-.12c-.38.56-.88,1.03-1.5,1.41s-1.43.58-2.43.58ZM90.17,48.31c1.15,0,1.95-.33,2.42-.98.47-.66.71-1.65.73-2.97v-.39c0-1.43-.23-2.52-.68-3.28-.45-.76-1.29-1.14-2.52-1.14-.95,0-1.68.39-2.17,1.17-.5.78-.75,1.87-.75,3.28s.25,2.48.76,3.22,1.25,1.11,2.21,1.11Z"/><path class="cls-1" d="M112.13,43.88c0,2.21-.57,3.92-1.72,5.12-1.15,1.21-2.7,1.81-4.67,1.81-1.21,0-2.29-.27-3.25-.81s-1.7-1.33-2.24-2.36c-.54-1.03-.81-2.29-.81-3.76,0-2.21.57-3.91,1.71-5.1,1.14-1.19,2.69-1.78,4.66-1.78,1.23,0,2.32.27,3.27.8.95.53,1.7,1.31,2.24,2.34.54,1.02.81,2.27.81,3.75ZM102.61,43.88c0,1.41.25,2.5.75,3.27.5.77,1.31,1.16,2.42,1.16s1.9-.38,2.41-1.16.76-1.86.76-3.27-.25-2.49-.76-3.25-1.32-1.13-2.43-1.13-1.92.38-2.41,1.13c-.49.75-.74,1.84-.74,3.25Z"/><path class="cls-1" d="M124.39,46.71c0,1.34-.48,2.36-1.44,3.06-.96.7-2.33,1.04-4.12,1.04-.93,0-1.73-.07-2.4-.2-.66-.13-1.31-.33-1.93-.61v-2.63c.66.31,1.38.57,2.18.79s1.54.32,2.25.32c.85,0,1.47-.13,1.84-.39.38-.26.57-.61.57-1.06,0-.26-.07-.5-.22-.7s-.43-.43-.86-.68c-.43-.25-1.07-.55-1.94-.91-.85-.34-1.56-.69-2.13-1.03-.57-.34-.99-.75-1.28-1.23-.29-.48-.43-1.09-.43-1.84,0-1.2.48-2.1,1.43-2.72s2.2-.92,3.76-.92c.82,0,1.59.08,2.32.25.73.16,1.46.41,2.2.74l-.98,2.29c-.62-.26-1.23-.48-1.82-.66-.59-.18-1.2-.27-1.82-.27-1.36,0-2.04.38-2.04,1.16,0,.28.09.52.26.71.17.2.48.41.91.63.43.22,1.05.49,1.86.8.79.31,1.47.63,2.04.97.57.34,1.02.75,1.33,1.23.31.48.47,1.11.47,1.88Z"/><path class="cls-1" d="M132.73,37c1.79,0,3.2.53,4.24,1.6,1.04,1.07,1.56,2.55,1.56,4.45v1.57h-8.8c.03,1.21.37,2.15,1.01,2.81.64.66,1.52,1,2.66,1,.85,0,1.62-.09,2.31-.26.69-.17,1.39-.42,2.11-.75v2.48c-.66.31-1.34.54-2.04.69-.7.15-1.55.22-2.53.22-1.31,0-2.47-.25-3.47-.75s-1.78-1.25-2.35-2.26-.85-2.27-.85-3.8c0-2.28.56-4.02,1.68-5.21,1.12-1.2,2.61-1.79,4.46-1.79ZM132.73,39.28c-.84,0-1.51.27-2.03.8-.52.53-.82,1.32-.9,2.37h5.73c-.02-.92-.25-1.68-.7-2.27-.45-.6-1.15-.9-2.1-.9Z"/><path class="cls-1" d="M157.11,46.71c0,1.34-.48,2.36-1.44,3.06-.96.7-2.33,1.04-4.12,1.04-.93,0-1.73-.07-2.4-.2-.66-.13-1.31-.33-1.93-.61v-2.63c.66.31,1.38.57,2.18.79s1.54.32,2.25.32c.85,0,1.47-.13,1.84-.39.38-.26.57-.61.57-1.06,0-.26-.07-.5-.22-.7s-.43-.43-.86-.68c-.43-.25-1.07-.55-1.94-.91-.85-.34-1.56-.69-2.13-1.03-.57-.34-.99-.75-1.28-1.23-.29-.48-.43-1.09-.43-1.84,0-1.2.48-2.1,1.43-2.72s2.2-.92,3.76-.92c.82,0,1.59.08,2.32.25.73.16,1.46.41,2.2.74l-.98,2.29c-.62-.26-1.23-.48-1.82-.66-.59-.18-1.2-.27-1.82-.27-1.36,0-2.04.38-2.04,1.16,0,.28.09.52.26.71.17.2.48.41.91.63.43.22,1.05.49,1.86.8.79.31,1.47.63,2.04.97.57.34,1.02.75,1.33,1.23.31.48.47,1.11.47,1.88Z"/><path class="cls-1" d="M165.45,37c1.79,0,3.2.53,4.24,1.6,1.04,1.07,1.56,2.55,1.56,4.45v1.57h-8.8c.03,1.21.37,2.15,1.01,2.81.64.66,1.52,1,2.66,1,.85,0,1.62-.09,2.31-.26.69-.17,1.39-.42,2.11-.75v2.48c-.66.31-1.34.54-2.04.69-.7.15-1.55.22-2.53.22-1.31,0-2.47-.25-3.47-.75s-1.78-1.25-2.35-2.26-.85-2.27-.85-3.8c0-2.28.56-4.02,1.68-5.21,1.12-1.2,2.61-1.79,4.46-1.79ZM165.45,39.28c-.84,0-1.51.27-2.03.8-.52.53-.82,1.32-.9,2.37h5.73c-.02-.92-.25-1.68-.7-2.27-.45-.6-1.15-.9-2.1-.9Z"/><path class="cls-1" d="M175.92,32.11c.46,0,.86.12,1.21.36.34.24.52.66.52,1.27s-.17,1.03-.52,1.28c-.34.25-.75.37-1.21.37s-.88-.12-1.22-.37-.5-.67-.5-1.28.17-1.03.5-1.27c.34-.24.74-.36,1.22-.36ZM177.47,37.24v13.32h-3.1v-13.32h3.1Z"/><path class="cls-1" d="M188.56,37c1.49,0,2.66.39,3.5,1.16.84.77,1.27,2.02,1.27,3.74v8.68h-3.1v-8.06c0-1-.2-1.75-.59-2.25s-1.02-.75-1.87-.75c-1.25,0-2.1.39-2.56,1.18-.46.79-.69,1.91-.69,3.37v6.51h-3.1v-13.32h2.38l.44,1.75h.17c.43-.69,1.01-1.19,1.76-1.51s1.54-.48,2.37-.48Z"/><path class="cls-1" d="M196.77,49c0-.69.18-1.18.55-1.46.37-.29.81-.43,1.32-.43s.95.14,1.33.43c.38.29.57.77.57,1.46s-.19,1.16-.57,1.45c-.38.29-.82.44-1.33.44s-.95-.15-1.32-.44c-.37-.29-.55-.78-.55-1.45Z"/></svg>