<?xml version="1.0" encoding="UTF-8"?><svg id="Warstwa_3" xmlns="http://www.w3.org/2000/svg" viewBox="0 0 355.48 60.13"><defs><style>.cls-1{fill:#42403d;stroke-width:0px;}</style></defs><path class="cls-1" d="M12.27,21.07H2.29V3.52h9.98v2.63h-6.83v4.47h6.39v2.63h-6.39v5.16h6.83v2.66Z"/><path class="cls-1" d="M22.69,7.5c.21,0,.45.01.71.04.26.02.48.05.64.09l-.27,2.88c-.16-.03-.37-.06-.6-.09-.24-.02-.44-.04-.6-.04-.66,0-1.27.14-1.84.41-.57.27-1.04.68-1.39,1.24-.35.56-.53,1.27-.53,2.14v6.91h-3.1V7.74h2.38l.44,2.31h.15c.39-.7.93-1.31,1.62-1.81.69-.5,1.48-.75,2.38-.75Z"/><path class="cls-1" d="M35.57,17.21c0,1.34-.48,2.36-1.44,3.06-.96.7-2.33,1.04-4.12,1.04-.93,0-1.73-.07-2.4-.2-.66-.13-1.31-.34-1.93-.61v-2.63c.66.31,1.38.57,2.18.79.79.21,1.54.32,2.25.32.85,0,1.47-.13,1.84-.39.38-.26.57-.61.57-1.06,0-.26-.07-.5-.22-.7-.15-.2-.43-.43-.86-.68-.43-.25-1.07-.55-1.94-.91-.85-.34-1.56-.69-2.13-1.03s-.99-.75-1.28-1.23c-.29-.48-.43-1.09-.43-1.84,0-1.2.48-2.1,1.43-2.72.95-.61,2.2-.92,3.76-.92.82,0,1.59.08,2.32.25.73.16,1.46.41,2.2.74l-.98,2.29c-.62-.26-1.23-.48-1.82-.66-.59-.18-1.2-.27-1.82-.27-1.36,0-2.04.39-2.04,1.16,0,.28.09.52.26.71.17.2.48.41.91.63.43.22,1.05.49,1.86.8.79.31,1.47.64,2.04.97.57.34,1.02.75,1.33,1.23.31.48.47,1.11.47,1.88Z"/><path class="cls-1" d="M43.93,21.31c-1.9,0-3.4-.55-4.51-1.65-1.11-1.1-1.66-2.83-1.66-5.19,0-1.64.27-2.97.82-4,.55-1.02,1.31-1.78,2.27-2.26.97-.48,2.07-.73,3.32-.73.82,0,1.56.08,2.22.25.66.16,1.22.36,1.68.59l-.91,2.43c-.52-.2-1.04-.36-1.55-.5-.51-.14-.99-.21-1.45-.21-2.16,0-3.25,1.47-3.25,4.4,0,1.43.27,2.5.82,3.22s1.34,1.08,2.37,1.08c.74,0,1.4-.09,1.98-.27s1.13-.43,1.63-.74v2.68c-.51.31-1.06.54-1.65.68-.59.14-1.31.21-2.16.21Z"/><path class="cls-1" d="M53.96,2.38v4.45c0,.52-.02,1.04-.06,1.54s-.08.87-.11,1.12h.2c.43-.67.98-1.17,1.67-1.5.69-.33,1.45-.49,2.29-.49,1.51,0,2.69.39,3.54,1.17s1.28,2.02,1.28,3.72v8.68h-3.1v-8.06c0-1-.2-1.75-.59-2.25-.39-.5-1.02-.75-1.87-.75-1.25,0-2.1.39-2.56,1.18-.46.79-.69,1.91-.69,3.37v6.51h-3.1V2.38h3.1Z"/><path class="cls-1" d="M78.54,14.38c0,2.21-.57,3.92-1.72,5.13s-2.7,1.81-4.67,1.81c-1.21,0-2.29-.27-3.25-.81s-1.7-1.33-2.24-2.36c-.54-1.03-.81-2.29-.81-3.76,0-2.21.57-3.91,1.71-5.1,1.14-1.19,2.69-1.78,4.66-1.78,1.23,0,2.32.27,3.27.8.95.53,1.7,1.31,2.24,2.34.54,1.02.81,2.27.81,3.75ZM68.34,4.25c0-.52.14-.9.43-1.13.29-.23.63-.34,1.04-.34s.74.12,1.04.34c.3.23.46.61.46,1.13,0,.49-.15.86-.46,1.09-.3.24-.65.36-1.04.36s-.76-.12-1.04-.36c-.29-.24-.43-.6-.43-1.09ZM69.03,14.38c0,1.41.25,2.5.75,3.27.5.77,1.31,1.16,2.42,1.16s1.9-.38,2.41-1.16.76-1.86.76-3.27-.25-2.49-.76-3.24-1.32-1.13-2.43-1.13-1.92.38-2.41,1.13c-.49.75-.74,1.84-.74,3.24ZM73.11,4.25c0-.52.14-.9.43-1.13.29-.23.63-.34,1.04-.34s.74.12,1.04.34c.3.23.46.61.46,1.13,0,.49-.15.86-.46,1.09-.3.24-.65.36-1.04.36s-.76-.12-1.04-.36c-.29-.24-.43-.6-.43-1.09Z"/><path class="cls-1" d="M88.75,7.5c1.56,0,2.81.58,3.76,1.73.95,1.16,1.43,2.87,1.43,5.15s-.49,4-1.46,5.18c-.97,1.17-2.24,1.76-3.8,1.76-.98,0-1.78-.18-2.38-.54s-1.09-.78-1.45-1.25h-.2c.05.31.09.65.13,1.01.04.36.06.7.06,1.03v5.41h-3.1V7.74h2.51l.44,1.77h.15c.38-.56.87-1.03,1.47-1.43.61-.39,1.42-.59,2.43-.59ZM87.86,10.01c-1.1,0-1.87.33-2.32.98-.45.66-.68,1.65-.7,2.97v.39c0,1.43.22,2.52.65,3.28.43.76,1.24,1.14,2.42,1.14.97,0,1.68-.4,2.15-1.19.47-.79.7-1.88.7-3.26s-.23-2.44-.7-3.2c-.47-.75-1.2-1.13-2.2-1.13Z"/><path class="cls-1" d="M104.04,10.08h-3.22v10.99h-3.1v-10.99h-2.14v-1.48l2.14-.89v-.91c0-1.7.41-2.89,1.22-3.55.81-.66,1.92-1,3.33-1,.64,0,1.23.05,1.76.16.53.11.97.23,1.32.36l-.79,2.31c-.28-.08-.59-.16-.92-.23-.34-.07-.7-.11-1.09-.11-.61,0-1.04.18-1.32.55-.27.37-.41.9-.41,1.59v.86h3.22v2.34Z"/><path class="cls-1" d="M111.41,18.83c.38,0,.75-.04,1.12-.11s.71-.16,1.02-.26v2.31c-.33.16-.75.29-1.28.39-.53.1-1.07.15-1.65.15-.77,0-1.46-.12-2.08-.37-.62-.25-1.1-.68-1.46-1.3-.36-.62-.54-1.5-.54-2.63v-6.93h-1.79v-1.35l1.97-1.08.98-2.83h1.94v2.93h3.79v2.34h-3.79v6.91c0,.62.17,1.09.5,1.39s.76.45,1.27.45Z"/><path class="cls-1" d="M119.28,18.22l.17.27c-.23.87-.54,1.82-.92,2.85-.39,1.03-.78,2-1.19,2.9h-2.24c.23-.97.46-2,.68-3.1.22-1.1.4-2.07.53-2.93h2.97Z"/><path class="cls-1" d="M132.56,2.38v8.87c0,.41-.02.86-.05,1.34-.03.48-.07.94-.1,1.36h.07c.21-.3.46-.63.74-1.01.28-.38.56-.71.84-1.01l3.93-4.2h3.52l-5.33,5.75,5.68,7.57h-3.61l-4.13-5.7-1.55,1.28v4.43h-3.07V2.38h3.07Z"/><path class="cls-1" d="M155.76,7.74v13.32h-2.43l-.42-1.72h-.15c-.43.69-1.02,1.19-1.77,1.5s-1.55.47-2.38.47c-1.49,0-2.66-.38-3.5-1.16-.84-.77-1.27-2.01-1.27-3.71V7.74h3.1v8.09c0,1,.2,1.75.59,2.24.39.49,1.02.74,1.87.74,1.25,0,2.1-.39,2.57-1.18.47-.79.7-1.91.7-3.37v-6.51h3.1Z"/><path class="cls-1" d="M166.7,7.5c.21,0,.45.01.71.04.26.02.48.05.64.09l-.27,2.88c-.16-.03-.37-.06-.6-.09-.24-.02-.44-.04-.6-.04-.66,0-1.27.14-1.84.41-.57.27-1.04.68-1.39,1.24-.35.56-.53,1.27-.53,2.14v6.91h-3.1V7.74h2.38l.44,2.31h.15c.39-.7.93-1.31,1.62-1.81.69-.5,1.48-.75,2.38-.75Z"/><path class="cls-1" d="M179.54,21.07h-10.23v-1.89l6.54-9.07h-6.17v-2.36h9.66v2.09l-6.42,8.85h6.61v2.38Z"/><path class="cls-1" d="M187.65,7.5c1.72,0,3.03.38,3.92,1.13.89.75,1.34,1.92,1.34,3.49v8.95h-2.19l-.61-1.84h-.1c-.57.72-1.18,1.25-1.82,1.59-.64.34-1.51.5-2.61.5-1.2,0-2.19-.34-2.97-1.01-.79-.67-1.18-1.71-1.18-3.12s.5-2.41,1.51-3.1c1.01-.69,2.54-1.07,4.58-1.16l2.31-.07v-.66c0-.85-.21-1.46-.61-1.82-.41-.36-.98-.54-1.72-.54-.67,0-1.32.09-1.93.28-.61.19-1.22.42-1.83.7l-.98-2.16c.66-.34,1.41-.62,2.25-.84.84-.21,1.73-.32,2.64-.32ZM189.83,14.77l-1.62.05c-1.36.05-2.3.28-2.83.7-.53.42-.79.98-.79,1.68,0,.64.18,1.09.55,1.36.37.27.86.41,1.46.41.9,0,1.66-.26,2.29-.77.62-.52.93-1.28.93-2.3v-1.13Z"/><path class="cls-1" d="M201.96,18.83c.38,0,.75-.04,1.12-.11s.71-.16,1.02-.26v2.31c-.33.16-.75.29-1.28.39-.53.1-1.07.15-1.65.15-.77,0-1.46-.12-2.08-.37-.62-.25-1.1-.68-1.46-1.3-.36-.62-.54-1.5-.54-2.63v-6.93h-1.79v-1.35l1.97-1.08.98-2.83h1.94v2.93h3.79v2.34h-3.79v6.91c0,.62.17,1.09.5,1.39s.76.45,1.27.45Z"/><path class="cls-1" d="M222.04,7.5c1.51,0,2.64.39,3.41,1.16.76.77,1.14,2.02,1.14,3.74v8.68h-3.1v-8.09c0-1.98-.75-2.97-2.26-2.97-1.08,0-1.85.35-2.31,1.06s-.69,1.73-.69,3.07v6.93h-3.1v-8.09c0-1.98-.76-2.97-2.29-2.97-1.13,0-1.91.39-2.34,1.18-.43.79-.64,1.91-.64,3.37v6.51h-3.1V7.74h2.38l.44,1.75h.17c.41-.69.97-1.19,1.67-1.51.7-.32,1.44-.48,2.21-.48,1,0,1.84.16,2.52.49.68.33,1.2.85,1.56,1.57h.25c.41-.72.98-1.25,1.72-1.57.74-.33,1.52-.49,2.34-.49Z"/><path class="cls-1" d="M232.02,2.61c.46,0,.86.12,1.21.36.34.24.52.66.52,1.27s-.17,1.03-.52,1.28c-.34.25-.75.37-1.21.37s-.88-.12-1.22-.37c-.34-.25-.5-.67-.5-1.28s.17-1.03.5-1.27c.34-.24.74-.36,1.22-.36ZM233.57,7.74v13.32h-3.1V7.74h3.1Z"/><path class="cls-1" d="M242,7.5c1.72,0,3.04.66,3.96,1.97h.12l.29-1.72h2.58v13.42c0,1.9-.53,3.34-1.6,4.33-1.07.98-2.67,1.47-4.82,1.47-.95,0-1.83-.06-2.63-.18-.8-.12-1.57-.33-2.29-.63v-2.56c.75.33,1.56.58,2.42.76.86.18,1.76.27,2.69.27,1,0,1.77-.28,2.31-.85s.81-1.39.81-2.47v-.34c0-.25,0-.53.02-.86.02-.33.04-.59.07-.79h-.1c-.46.69-1.02,1.19-1.68,1.51-.66.32-1.41.48-2.25.48-1.62,0-2.89-.61-3.81-1.82s-1.38-2.9-1.38-5.06.46-3.86,1.39-5.09c.93-1.23,2.22-1.84,3.87-1.84ZM242.81,10.03c-1.93,0-2.9,1.48-2.9,4.45s.98,4.38,2.95,4.38c1.08,0,1.88-.3,2.4-.9.52-.6.77-1.61.77-3.04v-.47c0-1.57-.26-2.7-.77-3.39-.52-.69-1.33-1.03-2.45-1.03Z"/><path class="cls-1" d="M255.97,18.22l.17.27c-.23.87-.54,1.82-.92,2.85-.39,1.03-.78,2-1.19,2.9h-2.24c.23-.97.46-2,.68-3.1.22-1.1.4-2.07.53-2.93h2.97Z"/><path class="cls-1" d="M275.24,17.21c0,1.34-.48,2.36-1.44,3.06-.96.7-2.33,1.04-4.12,1.04-.93,0-1.73-.07-2.4-.2-.66-.13-1.31-.34-1.93-.61v-2.63c.66.31,1.38.57,2.18.79.79.21,1.54.32,2.25.32.85,0,1.47-.13,1.84-.39.38-.26.57-.61.57-1.06,0-.26-.07-.5-.22-.7-.15-.2-.43-.43-.86-.68-.43-.25-1.07-.55-1.94-.91-.85-.34-1.56-.69-2.13-1.03s-.99-.75-1.28-1.23c-.29-.48-.43-1.09-.43-1.84,0-1.2.48-2.1,1.43-2.72.95-.61,2.2-.92,3.76-.92.82,0,1.59.08,2.32.25.73.16,1.46.41,2.2.74l-.98,2.29c-.62-.26-1.23-.48-1.82-.66-.59-.18-1.2-.27-1.82-.27-1.36,0-2.04.39-2.04,1.16,0,.28.09.52.26.71.17.2.48.41.91.63.43.22,1.05.49,1.86.8.79.31,1.47.64,2.04.97.57.34,1.02.75,1.33,1.23.31.48.47,1.11.47,1.88Z"/><path class="cls-1" d="M283.6,21.31c-1.9,0-3.4-.55-4.51-1.65-1.11-1.1-1.66-2.83-1.66-5.19,0-1.64.27-2.97.82-4,.55-1.02,1.31-1.78,2.27-2.26.97-.48,2.07-.73,3.32-.73.82,0,1.56.08,2.22.25.66.16,1.22.36,1.68.59l-.91,2.43c-.52-.2-1.04-.36-1.55-.5-.51-.14-.99-.21-1.45-.21-2.16,0-3.25,1.47-3.25,4.4,0,1.43.27,2.5.82,3.22s1.34,1.08,2.37,1.08c.74,0,1.4-.09,1.98-.27s1.13-.43,1.63-.74v2.68c-.51.31-1.06.54-1.65.68-.59.14-1.31.21-2.16.21Z"/><path class="cls-1" d="M293.63,2.38v4.45c0,.52-.02,1.04-.06,1.54s-.08.87-.11,1.12h.2c.43-.67.98-1.17,1.67-1.5.69-.33,1.45-.49,2.29-.49,1.51,0,2.69.39,3.54,1.17s1.28,2.02,1.28,3.72v8.68h-3.1v-8.06c0-1-.2-1.75-.59-2.25-.39-.5-1.02-.75-1.87-.75-1.25,0-2.1.39-2.56,1.18-.46.79-.69,1.91-.69,3.37v6.51h-3.1V2.38h3.1Z"/><path class="cls-1" d="M317.23,21.07l-1.47-5.73c-.08-.29-.18-.68-.29-1.16-.12-.48-.23-.97-.36-1.48-.12-.51-.23-.98-.33-1.41-.1-.43-.17-.76-.22-.97h-.1c-.05.21-.12.54-.22.97-.1.43-.21.91-.33,1.41-.12.51-.24,1-.36,1.48-.11.48-.21.87-.29,1.18l-1.55,5.7h-3.39l-3.74-13.35h3.12l1.65,6.37c.12.44.23.93.33,1.48.11.54.2,1.06.28,1.55s.14.89.17,1.2h.1c.03-.29.09-.7.18-1.2.09-.51.18-1,.28-1.49s.18-.85.25-1.09l1.92-6.81h3.39l1.84,6.81c.07.29.15.68.26,1.16.11.48.2.95.28,1.43.08.48.13.87.15,1.18h.1c.03-.28.09-.66.17-1.14s.18-1,.29-1.55c.11-.55.24-1.05.37-1.51l1.67-6.37h3.07l-3.79,13.35h-3.44Z"/><path class="cls-1" d="M328.27,2.61c.46,0,.86.12,1.21.36.34.24.52.66.52,1.27s-.17,1.03-.52,1.28c-.34.25-.75.37-1.21.37s-.88-.12-1.22-.37c-.34-.25-.5-.67-.5-1.28s.17-1.03.5-1.27c.34-.24.74-.36,1.22-.36ZM329.82,7.74v13.32h-3.1V7.74h3.1Z"/><path class="cls-1" d="M340.9,7.5c1.49,0,2.66.39,3.5,1.16.84.77,1.27,2.02,1.27,3.74v8.68h-3.1v-8.06c0-1-.2-1.75-.59-2.25-.39-.5-1.02-.75-1.87-.75-1.25,0-2.1.39-2.56,1.18-.46.79-.69,1.91-.69,3.37v6.51h-3.1V7.74h2.38l.44,1.75h.17c.43-.69,1.01-1.19,1.76-1.51.75-.32,1.54-.48,2.37-.48Z"/><path class="cls-1" d="M348.4,15.78v-2.61h6.24v2.61h-6.24Z"/><path class="cls-1" d="M6.39,50.81c-1.54,0-2.79-.58-3.75-1.73s-1.44-2.87-1.44-5.15.48-4.02,1.45-5.19c.97-1.16,2.24-1.75,3.81-1.75.98,0,1.79.19,2.42.57.63.38,1.13.84,1.51,1.38h.15c-.05-.23-.1-.58-.15-1.04-.05-.47-.07-.91-.07-1.34v-4.67h3.1v18.68h-2.41l-.57-1.75h-.12c-.38.56-.88,1.03-1.5,1.41-.62.39-1.43.58-2.43.58ZM7.33,48.31c1.15,0,1.95-.33,2.42-.98.47-.66.71-1.65.73-2.97v-.39c0-1.43-.23-2.52-.68-3.28-.45-.76-1.29-1.14-2.52-1.14-.95,0-1.68.39-2.17,1.17-.5.78-.75,1.87-.75,3.28s.25,2.48.76,3.22c.51.74,1.25,1.11,2.21,1.11Z"/><path class="cls-1" d="M22.74,37c1.79,0,3.2.53,4.24,1.6s1.56,2.55,1.56,4.45v1.57h-8.8c.03,1.21.37,2.15,1.01,2.81.64.66,1.52,1,2.66,1,.85,0,1.62-.09,2.31-.26.69-.17,1.39-.42,2.11-.75v2.48c-.66.31-1.34.54-2.04.69-.7.15-1.55.22-2.53.22-1.31,0-2.47-.25-3.47-.75s-1.78-1.25-2.35-2.26-.85-2.27-.85-3.8c0-2.28.56-4.02,1.68-5.21,1.12-1.2,2.61-1.79,4.46-1.79ZM22.74,39.29c-.84,0-1.51.27-2.03.8s-.82,1.32-.9,2.37h5.73c-.02-.92-.25-1.68-.7-2.27-.45-.6-1.15-.9-2.1-.9Z"/><path class="cls-1" d="M34.76,50.57h-3.1v-18.68h3.1v18.68Z"/><path class="cls-1" d="M40.27,32.11c.46,0,.86.12,1.21.36.34.24.52.66.52,1.27s-.17,1.03-.52,1.28c-.34.25-.75.37-1.21.37s-.88-.12-1.22-.37c-.34-.25-.5-.67-.5-1.28s.17-1.03.5-1.27c.34-.24.74-.36,1.22-.36ZM41.82,37.24v13.32h-3.1v-13.32h3.1Z"/><path class="cls-1" d="M50.25,37c1.72,0,3.04.66,3.96,1.97h.12l.29-1.72h2.58v13.42c0,1.9-.53,3.34-1.6,4.33-1.07.98-2.67,1.47-4.82,1.47-.95,0-1.83-.06-2.63-.18-.8-.12-1.57-.33-2.29-.63v-2.56c.75.33,1.56.58,2.42.76.86.18,1.76.27,2.69.27,1,0,1.77-.28,2.31-.85s.81-1.39.81-2.47v-.34c0-.25,0-.53.02-.86.02-.33.04-.59.07-.79h-.1c-.46.69-1.02,1.19-1.68,1.51-.66.32-1.41.48-2.25.48-1.62,0-2.89-.61-3.81-1.82s-1.38-2.9-1.38-5.06.46-3.86,1.39-5.09c.93-1.23,2.22-1.84,3.87-1.84ZM51.06,39.53c-1.93,0-2.9,1.48-2.9,4.45s.98,4.38,2.95,4.38c1.08,0,1.88-.3,2.4-.9.52-.6.77-1.61.77-3.04v-.47c0-1.57-.26-2.7-.77-3.39-.52-.69-1.33-1.03-2.45-1.03Z"/><path class="cls-1" d="M64.21,47.72l.17.27c-.23.87-.54,1.82-.92,2.85-.39,1.03-.78,2-1.19,2.9h-2.24c.23-.97.46-2,.68-3.1.22-1.1.4-2.07.53-2.93h2.97Z"/><path class="cls-1" d="M78.89,37c1.72,0,3.04.66,3.96,1.97h.12l.29-1.72h2.58v13.42c0,1.9-.53,3.34-1.6,4.33-1.07.98-2.67,1.47-4.82,1.47-.95,0-1.83-.06-2.63-.18-.8-.12-1.57-.33-2.29-.63v-2.56c.75.33,1.56.58,2.42.76.86.18,1.76.27,2.69.27,1,0,1.77-.28,2.31-.85s.81-1.39.81-2.47v-.34c0-.25,0-.53.02-.86.02-.33.04-.59.07-.79h-.1c-.46.69-1.02,1.19-1.68,1.51-.66.32-1.41.48-2.25.48-1.62,0-2.89-.61-3.81-1.82s-1.38-2.9-1.38-5.06.46-3.86,1.39-5.09c.93-1.23,2.22-1.84,3.87-1.84ZM79.7,39.53c-1.93,0-2.9,1.48-2.9,4.45s.98,4.38,2.95,4.38c1.08,0,1.88-.3,2.4-.9.52-.6.77-1.61.77-3.04v-.47c0-1.57-.26-2.7-.77-3.39-.52-.69-1.33-1.03-2.45-1.03Z"/><path class="cls-1" d="M95.16,37c1.79,0,3.2.53,4.24,1.6s1.56,2.55,1.56,4.45v1.57h-8.8c.03,1.21.37,2.15,1.01,2.81.64.66,1.52,1,2.66,1,.85,0,1.62-.09,2.31-.26.69-.17,1.39-.42,2.11-.75v2.48c-.66.31-1.34.54-2.04.69-.7.15-1.55.22-2.53.22-1.31,0-2.47-.25-3.47-.75s-1.78-1.25-2.35-2.26-.85-2.27-.85-3.8c0-2.28.56-4.02,1.68-5.21,1.12-1.2,2.61-1.79,4.46-1.79ZM95.16,39.29c-.84,0-1.51.27-2.03.8s-.82,1.32-.9,2.37h5.73c-.02-.92-.25-1.68-.7-2.27-.45-.6-1.15-.9-2.1-.9Z"/><path class="cls-1" d="M113.16,46.71c0,1.34-.48,2.36-1.44,3.06-.96.7-2.33,1.04-4.12,1.04-.93,0-1.73-.07-2.4-.2-.66-.13-1.31-.34-1.93-.61v-2.63c.66.31,1.38.57,2.18.79.79.21,1.54.32,2.25.32.85,0,1.47-.13,1.84-.39.38-.26.57-.61.57-1.06,0-.26-.07-.5-.22-.7-.15-.2-.43-.43-.86-.68-.43-.25-1.07-.55-1.94-.91-.85-.34-1.56-.69-2.13-1.03s-.99-.75-1.28-1.23c-.29-.48-.43-1.09-.43-1.84,0-1.2.48-2.1,1.43-2.72.95-.61,2.2-.92,3.76-.92.82,0,1.59.08,2.32.25.73.16,1.46.41,2.2.74l-.98,2.29c-.62-.26-1.23-.48-1.82-.66-.59-.18-1.2-.27-1.82-.27-1.36,0-2.04.39-2.04,1.16,0,.28.09.52.26.71.17.2.48.41.91.63.43.22,1.05.49,1.86.8.79.31,1.47.64,2.04.97.57.34,1.02.75,1.33,1.23.31.48.47,1.11.47,1.88Z"/><path class="cls-1" d="M121.52,50.81c-1.9,0-3.4-.55-4.51-1.65-1.11-1.1-1.66-2.83-1.66-5.19,0-1.64.27-2.97.82-4,.55-1.02,1.31-1.78,2.27-2.26.97-.48,2.07-.73,3.32-.73.82,0,1.56.08,2.22.25.66.16,1.22.36,1.68.59l-.91,2.43c-.52-.2-1.04-.36-1.55-.5-.51-.14-.99-.21-1.45-.21-2.16,0-3.25,1.47-3.25,4.4,0,1.43.27,2.5.82,3.22s1.34,1.08,2.37,1.08c.74,0,1.4-.09,1.98-.27s1.13-.43,1.63-.74v2.68c-.51.31-1.06.54-1.65.68-.59.14-1.31.21-2.16.21Z"/><path class="cls-1" d="M131.55,31.89v4.45c0,.52-.02,1.04-.06,1.54s-.08.87-.11,1.12h.2c.43-.67.98-1.17,1.67-1.5.69-.33,1.45-.49,2.29-.49,1.51,0,2.69.39,3.54,1.17s1.28,2.02,1.28,3.72v8.68h-3.1v-8.06c0-1-.2-1.75-.59-2.25-.39-.5-1.02-.75-1.87-.75-1.25,0-2.1.39-2.56,1.18-.46.79-.69,1.91-.69,3.37v6.51h-3.1v-18.68h3.1Z"/><path class="cls-1" d="M155.15,50.57l-1.47-5.73c-.08-.29-.18-.68-.29-1.16-.12-.48-.23-.97-.36-1.48-.12-.51-.23-.98-.33-1.41-.1-.43-.17-.76-.22-.97h-.1c-.05.21-.12.54-.22.97-.1.43-.21.91-.33,1.41-.12.51-.24,1-.36,1.48-.11.48-.21.87-.29,1.18l-1.55,5.7h-3.39l-3.74-13.35h3.12l1.65,6.37c.12.44.23.93.33,1.48.11.54.2,1.06.28,1.55s.14.89.17,1.2h.1c.03-.29.09-.7.18-1.2.09-.51.18-1,.28-1.49s.18-.85.25-1.09l1.92-6.81h3.39l1.84,6.81c.07.29.15.68.26,1.16.11.48.2.95.28,1.43.08.48.13.87.15,1.18h.1c.03-.28.09-.66.17-1.14s.18-1,.29-1.55c.11-.55.24-1.05.37-1.51l1.67-6.37h3.07l-3.79,13.35h-3.44Z"/><path class="cls-1" d="M176.54,43.88c0,2.21-.57,3.92-1.72,5.13s-2.7,1.81-4.67,1.81c-1.21,0-2.29-.27-3.25-.81s-1.7-1.33-2.24-2.36c-.54-1.03-.81-2.29-.81-3.76,0-2.21.57-3.91,1.71-5.1,1.14-1.19,2.69-1.78,4.66-1.78,1.23,0,2.32.27,3.27.8.95.53,1.7,1.31,2.24,2.34.54,1.02.81,2.27.81,3.75ZM167.02,43.88c0,1.41.25,2.5.75,3.27.5.77,1.31,1.16,2.42,1.16s1.9-.38,2.41-1.16.76-1.86.76-3.27-.25-2.49-.76-3.24-1.32-1.13-2.43-1.13-1.92.38-2.41,1.13c-.49.75-.74,1.84-.74,3.24Z"/><path class="cls-1" d="M182.83,50.57h-3.1v-18.68h3.1v18.68Z"/><path class="cls-1" d="M189.88,50.57h-3.1v-18.68h3.1v18.68Z"/><path class="cls-1" d="M199.2,37c1.79,0,3.2.53,4.24,1.6s1.56,2.55,1.56,4.45v1.57h-8.8c.03,1.21.37,2.15,1.01,2.81.64.66,1.52,1,2.66,1,.85,0,1.62-.09,2.31-.26.69-.17,1.39-.42,2.11-.75v2.48c-.66.31-1.34.54-2.04.69-.7.15-1.55.22-2.53.22-1.31,0-2.47-.25-3.47-.75s-1.78-1.25-2.35-2.26-.85-2.27-.85-3.8c0-2.28.56-4.02,1.68-5.21,1.12-1.2,2.61-1.79,4.46-1.79ZM199.2,39.29c-.84,0-1.51.27-2.03.8s-.82,1.32-.9,2.37h5.73c-.02-.92-.25-1.68-.7-2.27-.45-.6-1.15-.9-2.1-.9Z"/><path class="cls-1" d="M215.25,37c1.49,0,2.66.39,3.5,1.16.84.77,1.27,2.02,1.27,3.74v8.68h-3.1v-8.06c0-1-.2-1.75-.59-2.25-.39-.5-1.02-.75-1.87-.75-1.25,0-2.1.39-2.56,1.18-.46.79-.69,1.91-.69,3.37v6.51h-3.1v-13.32h2.38l.44,1.75h.17c.43-.69,1.01-1.19,1.76-1.51.75-.32,1.54-.48,2.37-.48Z"/><path class="cls-1" d="M229.27,37c1.79,0,3.2.53,4.24,1.6s1.56,2.55,1.56,4.45v1.57h-8.8c.03,1.21.37,2.15,1.01,2.81.64.66,1.52,1,2.66,1,.85,0,1.62-.09,2.31-.26.69-.17,1.39-.42,2.11-.75v2.48c-.66.31-1.34.54-2.04.69-.7.15-1.55.22-2.53.22-1.31,0-2.47-.25-3.47-.75s-1.78-1.25-2.35-2.26-.85-2.27-.85-3.8c0-2.28.56-4.02,1.68-5.21,1.12-1.2,2.61-1.79,4.46-1.79ZM229.27,39.29c-.84,0-1.51.27-2.03.8s-.82,1.32-.9,2.37h5.73c-.02-.92-.25-1.68-.7-2.27-.45-.6-1.15-.9-2.1-.9Z"/><path class="cls-1" d="M244.88,33.02h5.29c2.28,0,4,.33,5.17.98,1.17.66,1.76,1.79,1.76,3.42,0,1.02-.25,1.86-.76,2.54-.51.68-1.24,1.11-2.19,1.29v.12c.64.13,1.22.34,1.73.64.52.29.93.73,1.24,1.29.31.57.47,1.31.47,2.23,0,1.59-.57,2.83-1.7,3.71-1.13.89-2.66,1.33-4.6,1.33h-6.42v-17.55ZM248.02,40.17h2.56c1.25,0,2.1-.2,2.57-.6.47-.4.7-.98.7-1.73s-.28-1.35-.85-1.7-1.46-.52-2.67-.52h-2.31v4.55ZM248.02,42.7v5.24h2.85c1.28,0,2.17-.25,2.67-.75.5-.5.75-1.15.75-1.95s-.26-1.38-.77-1.84c-.52-.46-1.45-.69-2.79-.69h-2.71Z"/><path class="cls-1" d="M266.27,37c1.79,0,3.2.53,4.24,1.6s1.56,2.55,1.56,4.45v1.57h-8.8c.03,1.21.37,2.15,1.01,2.81.64.66,1.52,1,2.66,1,.85,0,1.62-.09,2.31-.26.69-.17,1.39-.42,2.11-.75v2.48c-.66.31-1.34.54-2.04.69-.7.15-1.55.22-2.53.22-1.31,0-2.47-.25-3.47-.75s-1.78-1.25-2.35-2.26-.85-2.27-.85-3.8c0-2.28.56-4.02,1.68-5.21,1.12-1.2,2.61-1.79,4.46-1.79ZM266.27,39.29c-.84,0-1.51.27-2.03.8s-.82,1.32-.9,2.37h5.73c-.02-.92-.25-1.68-.7-2.27-.45-.6-1.15-.9-2.1-.9Z"/><path class="cls-1" d="M276.74,32.11c.46,0,.86.12,1.21.36.34.24.52.66.52,1.27s-.17,1.03-.52,1.28c-.34.25-.75.37-1.21.37s-.88-.12-1.22-.37c-.34-.25-.5-.67-.5-1.28s.17-1.03.5-1.27c.34-.24.74-.36,1.22-.36ZM278.29,37.24v13.32h-3.1v-13.32h3.1Z"/><path class="cls-1" d="M289.38,37c1.49,0,2.66.39,3.5,1.16.84.77,1.27,2.02,1.27,3.74v8.68h-3.1v-8.06c0-1-.2-1.75-.59-2.25-.39-.5-1.02-.75-1.87-.75-1.25,0-2.1.39-2.56,1.18-.46.79-.69,1.91-.69,3.37v6.51h-3.1v-13.32h2.38l.44,1.75h.17c.43-.69,1.01-1.19,1.76-1.51.75-.32,1.54-.48,2.37-.48Z"/><path class="cls-1" d="M303.39,37c1.79,0,3.2.53,4.24,1.6s1.56,2.55,1.56,4.45v1.57h-8.8c.03,1.21.37,2.15,1.01,2.81.64.66,1.52,1,2.66,1,.85,0,1.62-.09,2.31-.26.69-.17,1.39-.42,2.11-.75v2.48c-.66.31-1.34.54-2.04.69-.7.15-1.55.22-2.53.22-1.31,0-2.47-.25-3.47-.75s-1.78-1.25-2.35-2.26-.85-2.27-.85-3.8c0-2.28.56-4.02,1.68-5.21,1.12-1.2,2.61-1.79,4.46-1.79ZM303.39,39.29c-.84,0-1.51.27-2.03.8s-.82,1.32-.9,2.37h5.73c-.02-.92-.25-1.68-.7-2.27-.45-.6-1.15-.9-2.1-.9Z"/><path class="cls-1" d="M313.69,45.09v-.81c0-.85.16-1.56.48-2.14.32-.57.89-1.18,1.71-1.82.82-.62,1.4-1.14,1.73-1.55.34-.41.5-.92.5-1.52s-.22-1.1-.65-1.43c-.43-.33-1.05-.49-1.86-.49-.72,0-1.41.11-2.06.32-.66.21-1.31.48-1.97.81l-1.11-2.31c.75-.41,1.57-.74,2.46-1,.89-.25,1.86-.38,2.93-.38,1.66,0,2.93.4,3.83,1.19.9.8,1.35,1.84,1.35,3.13,0,.7-.11,1.31-.33,1.81-.22.5-.55.96-.98,1.39-.43.43-.96.88-1.56,1.35-.51.39-.89.73-1.16,1.01-.26.28-.44.55-.54.82-.1.27-.15.6-.15,1v.61h-2.63ZM313.22,49c0-.69.18-1.18.55-1.46.37-.29.82-.43,1.34-.43s.95.14,1.32.43c.37.29.55.77.55,1.46s-.18,1.16-.55,1.45c-.37.29-.81.44-1.32.44s-.97-.15-1.34-.44-.55-.78-.55-1.45Z"/></svg>