<?xml version="1.0" encoding="UTF-8"?><svg id="Warstwa_3" xmlns="http://www.w3.org/2000/svg" viewBox="0 0 289.84 60.13"><defs><style>.cls-1{fill:#42403d;stroke-width:0px;}</style></defs><path class="cls-1" d="M12.27,21.07H2.29V3.52h9.98v2.63h-6.83v4.47h6.39v2.63h-6.39v5.16h6.83v2.66Z"/><path class="cls-1" d="M17.26,2.61c.46,0,.86.12,1.21.36.34.24.52.66.52,1.27s-.17,1.03-.52,1.28c-.34.25-.75.37-1.21.37s-.88-.12-1.22-.37-.5-.67-.5-1.28.17-1.03.5-1.27c.34-.24.74-.36,1.22-.36ZM18.81,7.74v13.32h-3.1V7.74h3.1Z"/><path class="cls-1" d="M29.89,7.5c1.49,0,2.66.39,3.5,1.16.84.77,1.27,2.02,1.27,3.74v8.68h-3.1v-8.06c0-1-.2-1.75-.59-2.25s-1.02-.75-1.87-.75c-1.25,0-2.1.39-2.56,1.18-.46.79-.69,1.91-.69,3.37v6.51h-3.1V7.74h2.38l.44,1.75h.17c.43-.69,1.01-1.19,1.76-1.51s1.54-.48,2.37-.48Z"/><path class="cls-1" d="M43.91,7.5c1.79,0,3.2.53,4.24,1.6,1.04,1.07,1.56,2.55,1.56,4.45v1.57h-8.8c.03,1.21.37,2.15,1.01,2.81.64.66,1.52,1,2.66,1,.85,0,1.62-.09,2.31-.26.69-.17,1.39-.42,2.11-.75v2.48c-.66.31-1.34.54-2.04.69-.7.15-1.55.22-2.53.22-1.31,0-2.47-.25-3.47-.75s-1.78-1.25-2.35-2.26-.85-2.27-.85-3.8c0-2.28.56-4.02,1.68-5.21,1.12-1.2,2.61-1.79,4.46-1.79ZM43.91,9.78c-.84,0-1.51.27-2.03.8-.52.53-.82,1.32-.9,2.37h5.73c-.02-.92-.25-1.68-.7-2.27-.45-.6-1.15-.9-2.1-.9Z"/><path class="cls-1" d="M73.53,21.07h-3.15v-7.79h-7.72v7.79h-3.15V3.52h3.15v7.08h7.72V3.52h3.15v17.55Z"/><path class="cls-1" d="M83.17,7.5c1.79,0,3.2.53,4.24,1.6,1.04,1.07,1.56,2.55,1.56,4.45v1.57h-8.8c.03,1.21.37,2.15,1.01,2.81.64.66,1.52,1,2.66,1,.85,0,1.62-.09,2.31-.26.69-.17,1.39-.42,2.11-.75v2.48c-.66.31-1.34.54-2.04.69-.7.15-1.55.22-2.53.22-1.31,0-2.47-.25-3.47-.75s-1.78-1.25-2.35-2.26-.85-2.27-.85-3.8c0-2.28.56-4.02,1.68-5.21,1.12-1.2,2.61-1.79,4.46-1.79ZM83.17,9.78c-.84,0-1.51.27-2.03.8-.52.53-.82,1.32-.9,2.37h5.73c-.02-.92-.25-1.68-.7-2.27-.45-.6-1.15-.9-2.1-.9Z"/><path class="cls-1" d="M99.07,7.5c.21,0,.45.01.71.04.26.02.48.05.64.09l-.27,2.88c-.16-.03-.37-.06-.6-.09s-.44-.04-.6-.04c-.66,0-1.27.14-1.84.41-.57.27-1.04.68-1.39,1.24-.35.56-.53,1.27-.53,2.14v6.91h-3.1V7.74h2.38l.44,2.31h.15c.39-.7.93-1.31,1.62-1.81.69-.5,1.48-.75,2.38-.75Z"/><path class="cls-1" d="M111.91,21.07h-10.23v-1.89l6.54-9.07h-6.17v-2.36h9.66v2.09l-6.42,8.85h6.61v2.38Z"/><path class="cls-1" d="M123.78,17.21c0,1.34-.48,2.36-1.44,3.06-.96.7-2.33,1.04-4.12,1.04-.93,0-1.73-.07-2.4-.2-.66-.13-1.31-.33-1.93-.61v-2.63c.66.31,1.38.57,2.18.79s1.54.32,2.25.32c.85,0,1.47-.13,1.84-.39.38-.26.57-.61.57-1.06,0-.26-.07-.5-.22-.7s-.43-.43-.86-.68c-.43-.25-1.07-.55-1.94-.91-.85-.34-1.56-.69-2.13-1.03-.57-.34-.99-.75-1.28-1.23-.29-.48-.43-1.09-.43-1.84,0-1.2.48-2.1,1.43-2.72s2.2-.92,3.76-.92c.82,0,1.59.08,2.32.25.73.16,1.46.41,2.2.74l-.98,2.29c-.62-.26-1.23-.48-1.82-.66-.59-.18-1.2-.27-1.82-.27-1.36,0-2.04.38-2.04,1.16,0,.28.09.52.26.71.17.2.48.41.91.63.43.22,1.05.49,1.86.8.79.31,1.47.63,2.04.97.57.34,1.02.75,1.33,1.23.31.48.47,1.11.47,1.88Z"/><path class="cls-1" d="M132.14,21.31c-1.9,0-3.4-.55-4.51-1.65-1.11-1.1-1.66-2.83-1.66-5.19,0-1.64.27-2.97.82-3.99.55-1.02,1.31-1.78,2.27-2.26s2.07-.73,3.32-.73c.82,0,1.56.08,2.22.25s1.22.36,1.68.59l-.91,2.43c-.52-.2-1.04-.36-1.55-.5-.51-.14-.99-.21-1.45-.21-2.16,0-3.25,1.47-3.25,4.4,0,1.43.27,2.5.82,3.22.55.72,1.34,1.08,2.37,1.08.74,0,1.4-.09,1.98-.27s1.13-.43,1.63-.74v2.68c-.51.31-1.06.54-1.65.68-.59.14-1.31.21-2.16.21Z"/><path class="cls-1" d="M142.17,2.38v4.45c0,.53-.02,1.04-.06,1.54s-.08.87-.11,1.12h.2c.43-.67.98-1.17,1.67-1.5.69-.33,1.45-.49,2.29-.49,1.51,0,2.69.39,3.54,1.17s1.28,2.02,1.28,3.72v8.68h-3.1v-8.06c0-1-.2-1.75-.59-2.25s-1.02-.75-1.87-.75c-1.25,0-2.1.39-2.56,1.18-.46.79-.69,1.91-.69,3.37v6.51h-3.1V2.38h3.1Z"/><path class="cls-1" d="M165.77,21.07l-1.47-5.73c-.08-.3-.18-.68-.29-1.16-.12-.47-.23-.97-.36-1.47s-.23-.98-.33-1.41c-.1-.43-.17-.76-.22-.97h-.1c-.05.21-.12.54-.22.97-.1.43-.21.91-.33,1.41s-.24,1-.36,1.47c-.11.48-.21.87-.29,1.18l-1.55,5.7h-3.39l-3.74-13.35h3.12l1.65,6.37c.12.44.23.93.33,1.47s.2,1.06.28,1.55c.08.49.14.89.17,1.21h.1c.03-.3.09-.7.18-1.21.09-.51.18-1,.28-1.49s.18-.85.25-1.09l1.92-6.81h3.39l1.84,6.81c.07.29.15.68.26,1.16.11.48.2.95.28,1.43s.13.87.15,1.18h.1c.03-.28.09-.66.17-1.14s.18-1,.29-1.55.24-1.05.37-1.51l1.67-6.37h3.07l-3.79,13.35h-3.44Z"/><path class="cls-1" d="M180.57,7.5c1.72,0,3.03.38,3.92,1.13.89.75,1.34,1.92,1.34,3.49v8.95h-2.19l-.61-1.84h-.1c-.57.72-1.18,1.25-1.82,1.59-.64.33-1.51.5-2.61.5-1.2,0-2.19-.34-2.97-1.01s-1.18-1.71-1.18-3.12.5-2.41,1.51-3.1,2.54-1.07,4.58-1.16l2.31-.07v-.66c0-.85-.21-1.46-.61-1.82-.41-.36-.98-.54-1.72-.54-.67,0-1.32.09-1.93.28-.61.19-1.22.42-1.83.7l-.98-2.16c.66-.34,1.41-.62,2.25-.84.84-.21,1.73-.32,2.64-.32ZM176.61,4.25c0-.52.14-.9.43-1.13s.63-.34,1.04-.34.74.11,1.04.34c.3.23.46.61.46,1.13,0,.49-.15.86-.46,1.09-.3.24-.65.36-1.04.36s-.76-.12-1.04-.36c-.29-.24-.43-.6-.43-1.09ZM182.75,14.78l-1.62.05c-1.36.05-2.3.28-2.83.7-.53.42-.79.98-.79,1.68,0,.64.18,1.09.55,1.36.37.27.86.41,1.46.41.9,0,1.66-.26,2.29-.77.62-.52.93-1.28.93-2.3v-1.13ZM181.38,4.25c0-.52.14-.9.43-1.13.29-.23.63-.34,1.04-.34s.74.11,1.04.34c.3.23.45.61.45,1.13,0,.49-.15.86-.45,1.09-.3.24-.65.36-1.04.36s-.76-.12-1.04-.36c-.29-.24-.43-.6-.43-1.09Z"/><path class="cls-1" d="M195.1,21.31c-1.9,0-3.4-.55-4.51-1.65-1.11-1.1-1.66-2.83-1.66-5.19,0-1.64.27-2.97.82-3.99.55-1.02,1.31-1.78,2.27-2.26s2.07-.73,3.32-.73c.82,0,1.56.08,2.22.25s1.22.36,1.68.59l-.91,2.43c-.52-.2-1.04-.36-1.55-.5-.51-.14-.99-.21-1.45-.21-2.16,0-3.25,1.47-3.25,4.4,0,1.43.27,2.5.82,3.22.55.72,1.34,1.08,2.37,1.08.74,0,1.4-.09,1.98-.27s1.13-.43,1.63-.74v2.68c-.51.31-1.06.54-1.65.68-.59.14-1.31.21-2.16.21Z"/><path class="cls-1" d="M205.13,2.38v4.45c0,.53-.02,1.04-.06,1.54s-.08.87-.11,1.12h.2c.43-.67.98-1.17,1.67-1.5.69-.33,1.45-.49,2.29-.49,1.51,0,2.69.39,3.54,1.17s1.28,2.02,1.28,3.72v8.68h-3.1v-8.06c0-1-.2-1.75-.59-2.25s-1.02-.75-1.87-.75c-1.25,0-2.1.39-2.56,1.18-.46.79-.69,1.91-.69,3.37v6.51h-3.1V2.38h3.1Z"/><path class="cls-1" d="M223.17,7.5c1.79,0,3.2.53,4.24,1.6,1.04,1.07,1.56,2.55,1.56,4.45v1.57h-8.8c.03,1.21.37,2.15,1.01,2.81.64.66,1.52,1,2.66,1,.85,0,1.62-.09,2.31-.26.69-.17,1.39-.42,2.11-.75v2.48c-.66.31-1.34.54-2.04.69-.7.15-1.55.22-2.53.22-1.31,0-2.47-.25-3.47-.75s-1.78-1.25-2.35-2.26-.85-2.27-.85-3.8c0-2.28.56-4.02,1.68-5.21,1.12-1.2,2.61-1.79,4.46-1.79ZM223.17,9.78c-.84,0-1.51.27-2.03.8-.52.53-.82,1.32-.9,2.37h5.73c-.02-.92-.25-1.68-.7-2.27-.45-.6-1.15-.9-2.1-.9Z"/><path class="cls-1" d="M250.31,7.74v13.32h-2.43l-.42-1.72h-.15c-.43.69-1.02,1.19-1.77,1.5-.75.31-1.55.47-2.38.47-1.49,0-2.66-.38-3.5-1.16-.84-.77-1.27-2.01-1.27-3.71V7.74h3.1v8.09c0,1,.2,1.75.59,2.24.39.49,1.02.74,1.87.74,1.25,0,2.1-.39,2.57-1.18.47-.79.7-1.91.7-3.37v-6.51h3.1Z"/><path class="cls-1" d="M261.4,7.5c1.49,0,2.66.39,3.5,1.16.84.77,1.27,2.02,1.27,3.74v8.68h-3.1v-8.06c0-1-.2-1.75-.59-2.25s-1.02-.75-1.87-.75c-1.25,0-2.1.39-2.56,1.18-.46.79-.69,1.91-.69,3.37v6.51h-3.1V7.74h2.38l.44,1.75h.17c.43-.69,1.01-1.19,1.76-1.51s1.54-.48,2.37-.48Z"/><path class="cls-1" d="M274.45,21.31c-1.54,0-2.79-.58-3.75-1.73s-1.44-2.87-1.44-5.15.48-4.02,1.45-5.19c.97-1.16,2.24-1.75,3.81-1.75.98,0,1.79.19,2.42.57s1.13.84,1.51,1.38h.15c-.05-.23-.1-.58-.15-1.04-.05-.47-.07-.91-.07-1.34V2.38h3.1v18.68h-2.41l-.57-1.75h-.12c-.38.56-.88,1.03-1.5,1.41s-1.43.58-2.43.58ZM275.39,18.81c1.15,0,1.95-.33,2.42-.98.47-.66.71-1.65.73-2.97v-.39c0-1.43-.23-2.52-.68-3.28-.45-.76-1.29-1.14-2.52-1.14-.95,0-1.68.39-2.17,1.17-.5.78-.75,1.87-.75,3.28s.25,2.48.76,3.22,1.25,1.11,2.21,1.11Z"/><path class="cls-1" d="M9.12,37c1.49,0,2.66.39,3.5,1.16.84.77,1.27,2.02,1.27,3.74v8.68h-3.1v-8.06c0-1-.2-1.75-.59-2.25s-1.02-.75-1.87-.75c-1.25,0-2.1.39-2.56,1.18-.46.79-.69,1.91-.69,3.37v6.51H1.99v-13.32h2.38l.44,1.75h.17c.43-.69,1.01-1.19,1.76-1.51s1.54-.48,2.37-.48Z"/><path class="cls-1" d="M19.32,32.11c.46,0,.86.12,1.21.36.34.24.52.66.52,1.27s-.17,1.03-.52,1.28c-.34.25-.75.37-1.21.37s-.88-.12-1.22-.37-.5-.67-.5-1.28.17-1.03.5-1.27c.34-.24.74-.36,1.22-.36ZM20.87,37.24v13.32h-3.1v-13.32h3.1Z"/><path class="cls-1" d="M30.21,50.81c-1.9,0-3.4-.55-4.51-1.65-1.11-1.1-1.66-2.83-1.66-5.19,0-1.64.27-2.97.82-3.99.55-1.02,1.31-1.78,2.27-2.26s2.07-.73,3.32-.73c.82,0,1.56.08,2.22.25s1.22.36,1.68.59l-.91,2.43c-.52-.2-1.04-.36-1.55-.5-.51-.14-.99-.21-1.45-.21-2.16,0-3.25,1.47-3.25,4.4,0,1.43.27,2.5.82,3.22.55.72,1.34,1.08,2.37,1.08.74,0,1.4-.09,1.98-.27s1.13-.43,1.63-.74v2.68c-.51.31-1.06.54-1.65.68-.59.14-1.31.21-2.16.21Z"/><path class="cls-1" d="M40.24,31.88v4.45c0,.53-.02,1.04-.06,1.54s-.08.87-.11,1.12h.2c.43-.67.98-1.17,1.67-1.5.69-.33,1.45-.49,2.29-.49,1.51,0,2.69.39,3.54,1.17s1.28,2.02,1.28,3.72v8.68h-3.1v-8.06c0-1-.2-1.75-.59-2.25s-1.02-.75-1.87-.75c-1.25,0-2.1.39-2.56,1.18-.46.79-.69,1.91-.69,3.37v6.51h-3.1v-18.68h3.1Z"/><path class="cls-1" d="M58.09,48.33c.38,0,.75-.04,1.12-.11.37-.07.71-.16,1.02-.26v2.31c-.33.16-.75.29-1.28.39-.53.1-1.07.15-1.65.15-.77,0-1.46-.12-2.08-.37-.62-.25-1.1-.68-1.46-1.3s-.54-1.5-.54-2.63v-6.93h-1.79v-1.35l1.97-1.08.98-2.83h1.94v2.93h3.79v2.33h-3.79v6.91c0,.62.17,1.09.5,1.39.34.3.76.46,1.27.46Z"/><path class="cls-1" d="M71.98,46.71c0,1.34-.48,2.36-1.44,3.06-.96.7-2.33,1.04-4.12,1.04-.93,0-1.73-.07-2.4-.2-.66-.13-1.31-.33-1.93-.61v-2.63c.66.31,1.38.57,2.18.79s1.54.32,2.25.32c.85,0,1.47-.13,1.84-.39.38-.26.57-.61.57-1.06,0-.26-.07-.5-.22-.7s-.43-.43-.86-.68c-.43-.25-1.07-.55-1.94-.91-.85-.34-1.56-.69-2.13-1.03-.57-.34-.99-.75-1.28-1.23-.29-.48-.43-1.09-.43-1.84,0-1.2.48-2.1,1.43-2.72s2.2-.92,3.76-.92c.82,0,1.59.08,2.32.25.73.16,1.46.41,2.2.74l-.98,2.29c-.62-.26-1.23-.48-1.82-.66-.59-.18-1.2-.27-1.82-.27-1.36,0-2.04.38-2.04,1.16,0,.28.09.52.26.71.17.2.48.41.91.63.43.22,1.05.49,1.86.8.79.31,1.47.63,2.04.97.57.34,1.02.75,1.33,1.23.31.48.47,1.11.47,1.88Z"/><path class="cls-1" d="M84.45,31.88v4.45c0,.53-.02,1.04-.06,1.54s-.08.87-.11,1.12h.2c.43-.67.98-1.17,1.67-1.5.69-.33,1.45-.49,2.29-.49,1.51,0,2.69.39,3.54,1.17s1.28,2.02,1.28,3.72v8.68h-3.1v-8.06c0-1-.2-1.75-.59-2.25s-1.02-.75-1.87-.75c-1.25,0-2.1.39-2.56,1.18-.46.79-.69,1.91-.69,3.37v6.51h-3.1v-18.68h3.1Z"/><path class="cls-1" d="M98.68,32.11c.46,0,.86.12,1.21.36.34.24.52.66.52,1.27s-.17,1.03-.52,1.28c-.34.25-.75.37-1.21.37s-.88-.12-1.22-.37-.5-.67-.5-1.28.17-1.03.5-1.27c.34-.24.74-.36,1.22-.36ZM100.23,37.24v13.32h-3.1v-13.32h3.1Z"/><path class="cls-1" d="M107.28,50.57h-3.1v-18.68h3.1v18.68Z"/><path class="cls-1" d="M118.15,39.58h-3.22v10.99h-3.1v-10.99h-2.14v-1.47l2.14-.88v-.91c0-1.7.41-2.89,1.22-3.55.81-.66,1.92-1,3.33-1,.64,0,1.23.05,1.76.16s.97.23,1.32.36l-.79,2.31c-.28-.08-.59-.16-.92-.23-.34-.07-.7-.11-1.09-.11-.61,0-1.04.18-1.32.55-.27.37-.41.9-.41,1.59v.86h3.22v2.33Z"/><path class="cls-1" d="M125.53,48.33c.38,0,.75-.04,1.12-.11.37-.07.71-.16,1.02-.26v2.31c-.33.16-.75.29-1.28.39-.53.1-1.07.15-1.65.15-.77,0-1.46-.12-2.08-.37-.62-.25-1.1-.68-1.46-1.3s-.54-1.5-.54-2.63v-6.93h-1.79v-1.35l1.97-1.08.98-2.83h1.94v2.93h3.79v2.33h-3.79v6.91c0,.62.17,1.09.5,1.39.34.3.76.46,1.27.46Z"/><path class="cls-1" d="M131.72,45.09v-.81c0-.85.16-1.57.48-2.14.32-.57.89-1.18,1.71-1.82.82-.62,1.4-1.14,1.73-1.55.34-.41.5-.92.5-1.52s-.22-1.1-.65-1.43c-.43-.33-1.05-.49-1.86-.49-.72,0-1.41.11-2.06.32-.66.21-1.31.48-1.97.81l-1.11-2.31c.75-.41,1.57-.74,2.46-1,.89-.25,1.86-.38,2.93-.38,1.66,0,2.93.4,3.83,1.19s1.35,1.84,1.35,3.13c0,.71-.11,1.31-.33,1.81-.22.5-.55.96-.98,1.39-.43.43-.96.88-1.56,1.35-.51.39-.89.73-1.16,1.01-.26.28-.44.55-.54.82-.1.27-.15.6-.15,1v.61h-2.63ZM131.25,49c0-.69.18-1.18.55-1.46.37-.29.82-.43,1.34-.43s.95.14,1.32.43c.37.29.55.77.55,1.46s-.18,1.16-.55,1.45c-.37.29-.81.44-1.32.44s-.97-.15-1.34-.44-.55-.78-.55-1.45Z"/></svg>